<svg width="2297" height="3067" xmlns="http://www.w3.org/2000/svg">
    <g fill="#72B9F6">
        <path d="M607.111 225.47c-405.196-269.25 3.614-764.364 237.795-990.45 152.317-147.083 342.827-240.36 528.223-85.655 128.15 106.906 216.592 273.412 285.682 422.902 99.59 216.44 290.338 717.28-12.25 862.827-105.616 50.751-231.851 34.074-344.076 20.676-242.842-28.95-489.752-93.652-695.374-230.3z"
              opacity=".06"/>
        <path d="M1228.434 27.717c276.044-358.344 708.752 52.884 903.257 284.722 126.54 150.795 200.693 333.525 45.162 495.441-107.479 111.924-267.662 183.156-410.807 237.545-207.223 78.338-684.16 222.788-799.52-67.273-40.22-101.242-16.556-217.235 3.156-320.448 42.616-223.343 118.657-448.142 258.752-629.987z"
              opacity=".05"/>
        <path d="M1061.783 1495.068C1385 1792.307 950.626 2175.972 709.925 2344.46c-156.562 109.615-339.576 165.873-483.012 1.78-99.152-113.397-154.486-274.32-194.97-417.343-58.223-207.012-157.553-680.433 132.76-767.463 101.325-30.332 211.51 2.358 309.668 30.147 212.408 60.095 423.395 152.635 587.412 303.486z"
              opacity=".06"/>
        <path d="M1307.886 3011.485c-466.713 137.328-583.214-494.092-605.878-818.81-14.764-211.225 36.239-417.122 273.92-459.7 164.269-29.452 348.669 9.826 507.595 52.99 229.818 62.834 736.094 238.647 653.09 563.999-29.011 113.53-122.93 199.51-205.33 276.868-178.273 167.419-386.548 314.974-623.397 384.653z"
              opacity=".05"/>
    </g>
</svg>
