<svg width="281" height="1288" xmlns="http://www.w3.org/2000/svg"><defs><linearGradient x1="50%" y1="0%" x2="50%" y2="100%" id="a"><stop stop-color="#128CF4" offset="0%"/><stop stop-color="#254A93" offset="100%"/></linearGradient><linearGradient x1="38.285%" y1="40.188%" x2="51.896%" y2="-6.871%" id="b"><stop stop-color="#128CF4" offset="0%"/><stop stop-color="#254A93" offset="100%"/></linearGradient><linearGradient x1="50%" y1="0%" x2="50%" y2="100%" id="c"><stop stop-color="#128CF4" offset="0%"/><stop stop-color="#254A93" offset="100%"/></linearGradient><linearGradient x1="0%" y1="50%" x2="100%" y2="50%" id="d"><stop stop-color="#128CF4" offset="0%"/><stop stop-color="#254A93" offset="100%"/></linearGradient></defs><g fill="none" fill-rule="evenodd"><path d="M2330.886 470.37c171.83-223.259 441.399 33.116 562.583 177.641 78.838 94.005 125.06 207.899 28.236 308.77-66.909 69.727-166.65 114.083-255.783 147.946-129.034 48.774-426.022 138.688-497.93-42.105-25.07-63.102-10.36-135.384 1.893-199.702 26.49-139.178 73.795-279.256 161-392.55z" fill="url(#a)" opacity=".23" transform="rotate(-75 971.32 1888.41)"/><path d="M958.201 1218.818c-124.32-374.1 383.529-486.37 645.748-513.936 170.57-17.95 338.679 17.517 379.845 208.81 28.47 132.207 1.871 282.67-28.591 412.61-44.387 187.915-172.439 602.942-438.148 544.945-92.72-20.275-164.968-93.902-229.91-158.444-140.55-139.636-265.864-304.135-328.944-493.985z" fill="url(#b)" opacity=".22" transform="rotate(-99 979.124 1675.755)"/><path d="M1584.469 454.274c-97.739-294.254 301.525-382.56 507.678-404.243 134.1-14.118 266.266 13.778 298.63 164.243 22.383 103.99 1.471 222.338-22.478 324.545-34.896 147.807-135.568 474.252-344.466 428.634-72.894-15.948-129.695-73.86-180.752-124.627-110.498-109.833-209.02-239.222-258.612-388.552z" fill="url(#c)" opacity=".21" transform="rotate(-152 948.547 790.607)"/><path d="M297.575 798.559c-138.316-416.091 426.706-540.96 718.447-571.622 189.773-19.964 376.809 19.483 422.61 232.248 31.675 147.047 2.082 314.398-31.81 458.924-49.384 209.007-191.851 670.619-487.475 606.112-103.158-22.552-183.54-104.442-255.795-176.23C507.18 1192.683 367.757 1009.72 297.575 798.56z" fill="url(#d)" opacity=".1" transform="rotate(-112 702.966 1606.073)"/></g></svg>
