<svg xmlns="http://www.w3.org/2000/svg" viewBox="0 0 76 77"><g fill="none"><path d="M7.5 23.2S6 24.3 4.6 25.8c-1.7 1.8-3.4 4.7-3.6 8.4-.4 7.3 2 9 4 11.5 0 0 2.6 3.1 5.5 5.6 2.9 2.5 15.8 13 24.3 17.1 8.5 4.1 13.7 4.8 18.8 4.8 5.6 0 10.6-2 13.7-6.8 2.9-4.5 5.7-11.1 5.9-31.7.1-17.6-3.1-23.3-5.8-27.7-2.8-4.5-10.5-9.3-27.1-3.2C24.1 9.6 7.5 23.2 7.5 23.2z" fill="#C6DEFF"/><path d="M10.5 45.5v-35h8.8V7.1h25.1l9 8.9v39.5H4.7s.7-6.7 5.8-10z" fill="#FFF"/><path d="M27.9 76.3c-.3 0-.6 0-.8-.1-2.3-.5-3.8-2.7-3.4-5 .2-1.1.9-2.1 1.8-2.7.9-.6 2.1-.9 3.2-.6 1.1.2 2.1.9 2.7 1.8.6.9.9 2.1.6 3.2-.2 1.1-.9 2.1-1.8 2.7-.6.4-1.5.7-2.3.7zm0-7.1c-.5 0-1.1.2-1.5.5-.6.4-1 1-1.2 1.8-.3 1.5.7 3 2.2 3.3 1.5.3 3-.7 3.3-2.2.1-.7 0-1.5-.4-2.1-.4-.6-1-1-1.8-1.2-.2-.1-.4-.1-.6-.1zm6.8-3.3h-.4c-.5-.1-.9-.4-1.2-.8-.3-.4-.4-.9-.3-1.4.2-1 1.1-1.6 2.1-1.4 1 .2 1.6 1.1 1.4 2.1-.1.5-.4.9-.8 1.2-.1.2-.4.3-.8.3zm0-2.6c-.4 0-.7.3-.8.7 0 .2 0 .4.1.6.1.2.3.3.5.4.2 0 .4 0 .6-.1.2-.1.3-.3.4-.5.1-.5-.2-.9-.7-1 0-.1-.1-.1-.1-.1z" fill="#005A9E"/><g fill="#005A9E"><path d="M70.8 60.4c-.5 0-.9-.4-.9-.9v-7.3c0-.5.4-.9.9-.9s.9.4.9.9v7.3c0 .5-.4.9-.9.9z"/><path d="M66.2 55.9c0-.5.4-.9.9-.9h7.3c.5 0 .9.4.9.9s-.4.9-.9.9h-7.3c-.5 0-.9-.4-.9-.9z"/></g><g fill="#005A9E"><path d="M62.6 18.6c-.3 0-.5-.2-.5-.5v-3.7c0-.3.2-.5.5-.5s.5.2.5.5v3.7c0 .3-.3.5-.5.5z"/><path d="M60.2 16.3c0-.3.2-.5.5-.5h3.7c.3 0 .5.2.5.5s-.2.5-.5.5h-3.7c-.3-.1-.5-.3-.5-.5z"/></g><g fill="#005A9E"><path d="M58.4 69.5c-.3 0-.5-.2-.5-.5v-3.7c0-.3.2-.5.5-.5s.5.2.5.5V69c0 .3-.2.5-.5.5z"/><path d="M56 67.2c0-.3.2-.5.5-.5h3.7c.3 0 .5.2.5.5s-.2.5-.5.5h-3.7c-.2 0-.5-.3-.5-.5z"/></g><g fill="#005A9E"><path d="M24.3 42h-3.1c-1.1 0-2.3-.4-3.1-1.2-1.6-1.4-2.7-3.3-3-5.5l-1-7.3c0-.2-.8-4.8 1.9-7.8 1.5-1.7 3.8-2.6 6.8-2.5 3-.1 5.3.8 6.8 2.5 2.6 3 1.9 7.6 1.9 7.8l-1 7.3c-.3 2.1-1.4 4.1-3 5.5-.9.8-2 1.2-3.2 1.2zm-1.9-23.1c-2.5 0-4.4.7-5.6 2.1-2.3 2.6-1.6 6.8-1.6 6.9l1.1 7.3c.3 1.8 1.2 3.5 2.6 4.7.7.6 1.5.9 2.4.9h3.1c.9 0 1.7-.3 2.4-.9 1.4-1.2 2.3-2.9 2.6-4.7l1-7.3c0-.1.7-4.3-1.6-6.9-1.3-1.5-3.3-2.2-5.9-2.1v-.1.1h-.5zm.4 37.1H4l.5-2.6c.8-4.3 3.8-7.9 8-9.2l3.3-1.1.4 1.1-3.3 1.1c-3.8 1.2-6.5 4.4-7.2 8.3l-.2 1.2h17.3V56z"/><path d="M41.3 56H22.5v-1.2h17.3l-.2-1.2c-.7-3.9-3.5-7.1-7.2-8.3l-3.1-1 .4-1.1 3.1 1c4.2 1.4 7.2 4.9 8 9.2l.5 2.6z"/><path d="M22.4 55.9c-3-2.8-6.7-11.6-6.9-12l-.1-.3 2.2-3.9 1 .6-1.9 3.4c.7 1.5 4 9 6.5 11.3l-.8.9z"/><path d="M23.2 55.9l-.8-.9c2.5-2.4 5.9-9.8 6.5-11.3L27 40.3l1-.6 2.2 3.9-.1.3c-.2.4-3.9 9.2-6.9 12zm5.9-26.6c-6.8 0-10.1-3.4-11.2-4.6-1.8 1.3-2.6 4.1-2.6 4.2l-1.1-.3c0-.2 1.2-3.7 3.6-5.1l.5-.3.3.5c.1.2 3.4 5.2 12.2 4.5l.1 1.2c-.7-.1-1.2-.1-1.8-.1z"/><path d="M26.3 49.7c-5-4.4-7.9-8.4-8-8.5l1-.7s3 4.1 7.8 8.4l-.8.8z"/><path d="M19.2 49.7l-.8-.9c4.9-4.3 7.8-8.3 7.8-8.4l1 .7c-.1.2-3 4.2-8 8.6zm-9.3 3.4h1.2v2.3H9.9zm24.3 0h1.2v2.3h-1.2zM53.8 56H43.2v-1.1h9.5V16l-8.5-8.5H19.9v8.2h-1.2V6.3h26l9.1 9.2z"/><path d="M53.3 16.3h-9.5V6.9H45v8.2h8.3zM10 41.6h1.2v1H10zm1.1-.9H10V10h9.3v1.2h-8.2zm20-28.2h3.5v1.2h-3.5zm-8 0h6.1v1.2h-6.1zm14.4 7.9h12.4v1.2H37.5zm-3.4 0h1.6v1.2h-1.6zm3.4 9.9h12.4v1.2H37.5zm-3.4 0h1.6v1.2h-1.6zm3.4 10h12.4v1.2H37.5zm-3.4 0h1.6v1.2h-1.6zm0-14.9h15.8v1.2H34.1zm0 9.9h15.8v1.2H34.1zm8.8 12.4h7v1.2h-7z"/></g></g></svg>
