<svg xmlns="http://www.w3.org/2000/svg" viewBox="0 0 106 102">
    <g fill="none" fill-rule="evenodd">
        <path fill="#C6DEFF" fill-rule="nonzero"
              d="M8.877 34.21s-2.035 1.491-3.934 3.525C2.637 40.175.331 44.107.06 49.124c-.543 9.897 2.713 12.202 5.426 15.592 0 0 3.527 4.203 7.46 7.592 3.934 3.39 21.432 17.625 32.962 23.184C57.438 101.051 64.492 102 71.41 102c7.596 0 14.379-2.712 18.584-9.22 3.933-6.1 7.732-15.049 8.003-42.978.136-23.862-4.205-31.59-7.868-37.556C86.331 6.145 75.886-.363 53.37 7.908 31.394 15.907 8.877 34.21 8.877 34.21z"/>
        <path fill="#FFF" fill-rule="nonzero"
              d="M23.61 30.39H15v43.954S14.867 79 18.634 79H68V36.415h-3.632v-16.98S64.638 13 58.046 13h-29.19s-5.112.959-5.112 6.025c0 5.066-.134 11.365-.134 11.365z"/>
        <g fill="#005A9E" fill-rule="nonzero">
            <path d="M96.947 12.738c-.92 0-1.71-.276-2.5-.692-1.315-.692-2.368-1.938-2.763-3.461-.526-1.523-.395-3.047.263-4.431.658-1.385 1.842-2.492 3.29-2.908 1.447-.554 2.895-.415 4.21.416 2.764 1.523 3.816 4.984 2.5 7.892-.658 1.384-1.842 2.492-3.29 2.908-.525.138-1.183.276-1.71.276zm0-9.83c-.394 0-.79 0-1.184.138-.92.277-1.71.97-2.105 1.939-.395.969-.526 1.938-.263 2.907.263.97.92 1.8 1.842 2.216.92.415 1.842.554 2.763.277a3.314 3.314 0 002.105-1.939c.921-1.938.132-4.292-1.579-5.123-.394-.277-1.052-.415-1.579-.415zM85.5 17.308c-.395 0-.79-.139-1.053-.277-.526-.277-1.052-.831-1.184-1.523-.263-.693-.131-1.385.132-1.939s.79-1.107 1.447-1.246c.658-.277 1.316-.138 1.842.139.527.276 1.053.83 1.184 1.523.264.692.132 1.384-.131 1.938-.526.83-1.316 1.385-2.237 1.385zm0-3.739h-.395c-.263.139-.526.277-.658.554a.924.924 0 000 .83c.132.278.264.555.527.693.526.277 1.184 0 1.447-.554a.924.924 0 000-.83c-.132-.277-.263-.554-.526-.693 0 .139-.263 0-.395 0z"/>
        </g>
        <g fill="#005A9E" fill-rule="nonzero">
            <path d="M102.133 72.88c-.4 0-.666-.24-.666-.6v-4.44c0-.36.266-.6.666-.6s.667.24.667.6v4.44c0 .36-.267.6-.667.6z"/>
            <path d="M99.067 70.12c0-.36.266-.6.666-.6h4.934c.4 0 .666.24.666.6s-.266.6-.666.6h-4.934c-.4 0-.666-.36-.666-.6z"/>
        </g>
        <g fill="#005A9E" fill-rule="nonzero">
            <path d="M12.338 22.44c-.705 0-1.268-.56-1.268-1.26V10.96c0-.7.563-1.26 1.268-1.26.704 0 1.267.56 1.267 1.26v10.22c.14.56-.563 1.26-1.268 1.26z"/>
            <path d="M6 16c0-.7.563-1.26 1.268-1.26h10.28c.705 0 1.268.56 1.268 1.26s-.563 1.26-1.268 1.26H7.268C6.563 17.26 6 16.7 6 16z"/>
        </g>
        <g fill="#005A9E" fill-rule="nonzero">
            <path d="M57.6 101.467c-.4 0-.667-.267-.667-.667v-4.933c0-.4.267-.667.667-.667s.667.267.667.667v4.933c-.134.4-.4.667-.667.667z"/>
            <path d="M54.4 98.4c0-.4.267-.667.667-.667H60c.4 0 .667.267.667.667s-.267.667-.667.667h-4.933c-.4-.134-.667-.4-.667-.667z"/>
        </g>
        <g fill="#005A9E" fill-rule="nonzero">
            <path d="M69.117 79.803h-36.28V35.778h4.485v1.631h-2.853v40.763h33.018V37.41h-2.174v-1.63h3.804z"/>
            <path d="M65.448 53.986H36.507v-8.56h28.941v8.56zm-27.31-1.63h25.68V46.92h-25.68v5.435zM65.448 61.867h-6.25v-6.25h6.25v6.25zm-4.62-1.495h2.99v-2.99h-2.99v2.99zM57.84 61.867h-6.251v-6.25h6.25v6.25zm-4.62-1.495h2.989v-2.99h-2.99v2.99zM50.23 61.867h-6.25v-6.25h6.25v6.25zm-4.62-1.495h2.99v-2.99h-2.99v2.99zM65.449 71.242h-1.631V64.72h-2.99v3.805h-1.63V63.09h6.25zM57.84 69.34h-6.251v-6.25h6.25v6.25zm-4.62-1.63h2.989v-2.99h-2.99v2.99zM50.23 69.34h-6.25v-6.25h6.25v6.25zm-4.62-1.63h2.99v-2.99h-2.99v2.99zM42.757 69.34h-6.25v-6.25h6.25v6.25zm-4.62-1.63h2.99v-2.99h-2.99v2.99zM42.757 61.867h-6.25v-6.25h6.25v6.25zm-4.62-1.495h2.99v-2.99h-2.99v2.99z"/>
            <g>
                <path d="M65.448 76.678h-6.25v-8.153h1.631v6.522h2.99v-3.804h1.63zM57.84 76.677h-6.251v-6.25h6.25v6.25zm-4.62-1.63h2.989v-2.99h-2.99v2.99zM50.23 76.677h-6.25v-6.25h6.25v6.25zm-4.62-1.63h2.99v-2.99h-2.99v2.99zM42.757 76.677h-6.25v-6.25h6.25v6.25zm-4.62-1.63h2.99v-2.99h-2.99v2.99z"/>
            </g>
            <path d="M18.979 79.803c-2.99 0-5.3-2.446-5.3-5.3V29.936h6.794v1.63h-5.299v42.937a3.653 3.653 0 003.669 3.67 3.653 3.653 0 003.668-3.67v-55.03c0-3.94 3.261-7.065 7.066-7.065h28.534c3.94 0 7.066 3.26 7.066 7.065v22.012H36.37V19.473c0-2.99-2.446-5.57-5.571-5.57h-.951c-2.99 0-5.571 2.445-5.571 5.57v55.03c0 2.854-2.31 5.3-5.3 5.3zM38 39.855h25.953V19.473c0-2.99-2.446-5.57-5.571-5.57h-23.1c1.631 1.358 2.582 3.26 2.582 5.57v20.382h.136z"/>
            <path d="M19.25 78.172h11.821v1.631H19.25z"/>
            <g>
                <path d="M41.262 33.876h2.446v1.631h-2.446zM45.475 33.876h15.082v1.631H45.475z"/>
            </g>
            <g>
                <path d="M41.262 27.218h2.446v1.631h-2.446zM45.475 27.218h8.288v1.631h-8.288z"/>
            </g>
            <path d="M56.073 27.218h4.62v1.631h-4.62z"/>
            <g>
                <path d="M41.262 20.56h2.446v1.632h-2.446zM45.475 20.56h15.082v1.632H45.475z"/>
            </g>
        </g>
        <path fill="#FFF"
              d="M72.808 37.53c.707-.434 2.294-.65 4.76-.65 3.7 0 9.929 1.904 10.472 5.262.544 3.358.409 9.35 0 12.474-.408 3.126-2.55 7.692-3.04 9.893-.326 1.467.236 3.831 1.686 7.092 5.047 1.721 8.076 3.08 9.085 4.076 1.515 1.495 5.644 6.963 5.644 8.826 0 1.863-.614 3.15-4.07 3.15H53.117c.634-4.715 1.812-7.836 3.533-9.363 2.582-2.29 7.528-4.787 9.699-5.738 1.447-.634 3.192-2.767 5.235-6.4L69 63.72c-.772-4.303-1.406-7.88-1.904-10.734-.747-4.28-1.505-10.36 1.424-12.908 1.952-1.7 3.381-2.549 4.288-2.549z"/>
        <g fill="#005A9E" fill-rule="nonzero">
            <path d="M79.608 69.302h-4.216c-1.496 0-3.128-.548-4.216-1.644-2.176-1.917-3.672-4.52-4.08-7.532l-1.36-9.997c0-.274-1.088-6.574 2.584-10.682 2.04-2.328 5.168-3.561 9.248-3.424 4.08-.137 7.208 1.096 9.248 3.424 3.536 4.108 2.584 10.408 2.584 10.682l-1.36 9.997c-.408 2.876-1.904 5.615-4.08 7.532-1.224 1.096-2.72 1.644-4.352 1.644zm-2.584-31.636c-3.4 0-5.984.959-7.616 2.876-3.128 3.561-2.176 9.313-2.176 9.45l1.496 9.997c.408 2.465 1.632 4.793 3.536 6.437.952.821 2.04 1.232 3.264 1.232h4.216c1.224 0 2.312-.41 3.264-1.232 1.904-1.644 3.128-3.972 3.536-6.437l1.36-9.997c0-.137.952-5.889-2.176-9.45-1.768-2.054-4.488-3.013-8.024-2.876v-.137.137h-.68zM77.568 88.474H52l.68-3.56c1.088-5.89 5.168-10.82 10.88-12.6l4.488-1.506.544 1.506-4.488 1.507c-5.168 1.643-8.84 6.026-9.792 11.367l-.272 1.643h23.528v1.643z"/>
            <path d="M102.728 88.474H77.16v-1.643h23.528l-.272-1.643c-.952-5.341-4.76-9.724-9.792-11.367l-4.216-1.37.544-1.506 4.216 1.37c5.712 1.917 9.792 6.71 10.88 12.599l.68 3.56z"/>
            <path d="M77.024 88.337c-4.08-3.834-9.112-15.886-9.384-16.433l-.136-.411 2.992-5.341 1.36.821-2.584 4.657c.952 2.054 5.44 12.325 8.84 15.475l-1.088 1.232z"/>
            <path d="M78.112 88.337l-1.088-1.232c3.4-3.287 8.024-13.421 8.84-15.475l-2.584-4.657 1.36-.821 2.992 5.34-.136.412c-.272.547-5.304 12.599-9.384 16.433zM86.136 51.909c-9.248 0-13.736-4.656-15.232-6.3-2.448 1.78-3.536 5.615-3.536 5.752l-1.496-.41c0-.274 1.632-5.068 4.896-6.985l.68-.41.408.684c.136.274 4.624 7.121 16.592 6.163l.136 1.643c-.952-.137-1.632-.137-2.448-.137z"/>
            <path d="M82.328 79.847c-6.8-6.026-10.744-11.504-10.88-11.641l1.36-.959s4.08 5.615 10.608 11.504l-1.088 1.096z"/>
            <path d="M72.672 79.847l-1.088-1.233c6.664-5.889 10.608-11.367 10.608-11.504l1.36.959c-.136.274-4.08 5.752-10.88 11.778z"/>
        </g>
        <g fill="#005A9E" fill-rule="nonzero">
            <path d="M60.024 84.503h1.632v3.15h-1.632zM93.072 84.503h1.632v3.15h-1.632z"/>
        </g>
    </g>
</svg>
