<svg xmlns="http://www.w3.org/2000/svg" viewBox="0 0 120 120">
    <defs>
        <style>
            .st3{fill:#fff}.st4{fill:#024797}
        </style>
    </defs>
    <g id="Stichting">
        <defs>
            <path id="SVGID_475_" d="M12 21h14-14z"/>
        </defs>
        <clipPath id="SVGID_476_">
            <path d="M12 21h14-14z" overflow="visible"/>
        </clipPath>
        <g clip-path="url(#SVGID_476_)">
            <defs>
                <path id="SVGID_477_" d="M-1749-1459H782v12377h-2531z"/>
            </defs>
            <clipPath id="SVGID_478_">
                <path d="M-1749-1459H782v12377h-2531z" overflow="visible"/>
            </clipPath>
            <path fill="#fff" d="M3 12h32v18H3z" clip-path="url(#SVGID_478_)"/>
        </g>
        <defs>
            <path id="SVGID_479_" d="M19 28V14v14z"/>
        </defs>
        <clipPath id="SVGID_480_">
            <path d="M19 28V14v14z" overflow="visible"/>
        </clipPath>
        <g clip-path="url(#SVGID_480_)">
            <defs>
                <path id="SVGID_481_" d="M-1749-1459H782v12377h-2531z"/>
            </defs>
            <clipPath id="SVGID_482_">
                <path d="M-1749-1459H782v12377h-2531z" overflow="visible"/>
            </clipPath>
            <path fill="#fff" d="M10 5h18v32H10z" clip-path="url(#SVGID_482_)"/>
        </g>
        <path d="M26 22H12l-1-1 1-1h14l1 1-1 1z" class="st4"/>
        <path d="M19 29l-1-1V14l1-1 1 1v14l-1 1z" class="st4"/>
        <defs>
            <path id="SVGID_483_" d="M23 43s16-12 28-18c12-7 24-13 37-13s26 4 26 50c-1 46-16 50-31 48-15-1-23-6-32-12-10-7-34-23-36-36-1-12 7-18 8-19"/>
        </defs>
        <clipPath id="SVGID_484_">
            <path d="M23 43s16-12 28-18c12-7 24-13 37-13s26 4 26 50c-1 46-16 50-31 48-15-1-23-6-32-12-10-7-34-23-36-36-1-12 7-18 8-19" overflow="visible"/>
        </clipPath>
        <g clip-path="url(#SVGID_484_)">
            <defs>
                <path id="SVGID_485_" d="M-1749-1459H782v12377h-2531z"/>
            </defs>
            <clipPath id="SVGID_486_">
                <path d="M-1749-1459H782v12377h-2531z" overflow="visible"/>
            </clipPath>
            <path fill="#c6deff" d="M6 3h116v116H6z" clip-path="url(#SVGID_486_)"/>
        </g>
        <defs>
            <path id="SVGID_487_" d="M110 35h3"/>
        </defs>
        <clipPath id="SVGID_488_">
            <path d="M110 35h3" overflow="visible"/>
        </clipPath>
        <g clip-path="url(#SVGID_488_)">
            <defs>
                <path id="SVGID_489_" d="M-1749-1459H782v12377h-2531z"/>
            </defs>
            <clipPath id="SVGID_490_">
                <path d="M-1749-1459H782v12377h-2531z" overflow="visible"/>
            </clipPath>
            <path fill="#fff" d="M101 26h21v18h-21z" clip-path="url(#SVGID_490_)"/>
        </g>
        <defs>
            <path id="SVGID_491_" d="M-1749-1459H782v12377h-2531z"/>
        </defs>
        <clipPath id="SVGID_492_">
            <path d="M-1749-1459H782v12377h-2531z" overflow="visible"/>
        </clipPath>
        <path fill="#fff" d="M72 36h37v18H72z" clip-path="url(#SVGID_492_)"/>
        <defs>
            <path id="SVGID_493_" d="M110 45h3"/>
        </defs>
        <clipPath id="SVGID_494_">
            <path d="M110 45h3" overflow="visible"/>
        </clipPath>
        <g clip-path="url(#SVGID_494_)">
            <defs>
                <path id="SVGID_495_" d="M-1749-1459H782v12377h-2531z"/>
            </defs>
            <clipPath id="SVGID_496_">
                <path d="M-1749-1459H782v12377h-2531z" overflow="visible"/>
            </clipPath>
            <path fill="#fff" d="M101 36h21v18h-21z" clip-path="url(#SVGID_496_)"/>
        </g>
        <g>
            <defs>
                <path id="SVGID_497_" d="M-1749-1459H782v12377h-2531z"/>
            </defs>
            <clipPath id="SVGID_498_">
                <path d="M-1749-1459H782v12377h-2531z" overflow="visible"/>
            </clipPath>
            <path fill="#fff" d="M72 45h37v18H72z" clip-path="url(#SVGID_498_)"/>
        </g>
        <g>
            <defs>
                <path id="SVGID_499_" d="M110 54h3"/>
            </defs>
            <clipPath id="SVGID_500_">
                <path d="M110 54h3" overflow="visible"/>
            </clipPath>
            <g clip-path="url(#SVGID_500_)">
                <defs>
                    <path id="SVGID_501_" d="M-1749-1459H782v12377h-2531z"/>
                </defs>
                <clipPath id="SVGID_502_">
                    <path d="M-1749-1459H782v12377h-2531z" overflow="visible"/>
                </clipPath>
                <path fill="#fff" d="M101 45h21v18h-21z" clip-path="url(#SVGID_502_)"/>
            </g>
        </g>
        <g>
            <defs>
                <path id="SVGID_503_" d="M-1749-1459H782v12377h-2531z"/>
            </defs>
        </g>
        <g>
            <defs>
                <path id="SVGID_505_" d="M-1749-1459H782v12377h-2531z"/>
            </defs>
        </g>
        <path d="M101 112c-3 0-6-3-6-7s3-6 6-6 7 3 7 6-3 7-7 7zm0-11c-2 0-4 2-4 4s2 5 4 5 5-2 5-5-2-4-5-4z" class="st4"/>
        <g>
            <defs>
                <path id="SVGID_507_" d="M89 96l1-1 1 1h-2"/>
            </defs>
            <clipPath id="SVGID_508_">
                <path d="M89 96l1-1 1 1h-2" overflow="visible"/>
            </clipPath>
            <g clip-path="url(#SVGID_508_)">
                <defs>
                    <path id="SVGID_509_" d="M-1749-1459H782v12377h-2531z"/>
                </defs>
                <clipPath id="SVGID_510_">
                    <path d="M-1749-1459H782v12377h-2531z" overflow="visible"/>
                </clipPath>
                <path fill="#fff" d="M80 86h19v19H80z" clip-path="url(#SVGID_510_)"/>
            </g>
        </g>
        <path d="M90 98a2 2 0 112-2l-2 2zm0-2z" class="st4"/>
        <g>
            <path fill="#128cf4" d="M113 43c-2-27-7-34-32-34s-30 7-32 34c-1 22 1 34 32 34s34-12 32-34z"/>
            <path d="M81 78c-14 0-23-2-28-8s-6-14-5-27 3-22 8-28c4-5 12-7 25-7 27 0 31 8 33 35 1 12 1 21-5 27-5 6-13 8-28 8zm0-68c-25 0-29 7-31 33-1 12 0 21 5 26 4 5 12 7 26 7s22-2 27-7c4-5 5-14 4-26-2-26-6-33-31-33z" class="st4"/>
            <path d="M101 43l-7 11-4 1-6-1-1-1c-1-3 0-3 1-3l4-3 1-2-1-8 9-5v-2l-10 2a886 886 0 00-1 13h-5-5l-1-1 1-12-11-2v2l9 5-1 7 1 3 5 3 1 3-2 1-6 1c-1 0-2 0-3-2l-7-10c-2-4-3-6-2-9 3-6 6-12 8-13 4-2 8 1 13 1s9-3 13-1c2 1 6 7 8 13 2 3 1 5-1 9zM90 57l-8-1h-1-1l-8 1-2 2 1 3c1 1 3 2 10 2s10-1 10-2l1-3-2-2z" class="st3"/>
        </g>
        <g>
            <path d="M60 78l-3 1-6 2-4 2-3 1-2-1 1-1 2-1c2-2 4-4 4-6l-1-2c-1-2-4-2-7 0-6 4-12 6-15 7h-1l-2-2h-6l-2 1v18l2 2h6l2-2h7l12-1h1l3-1h1l11-9 5-4-1-2-4-2zM22 95h-4V81h4v14zm36-12c-4 2-11 9-12 10h-2l-12 1h-6l-1-1 1-9c4-1 11-4 17-8l3-1c0 1 0 2-3 4l-2 1c-2 1-3 2-2 5l5 2 4-1 5-2 5-2h3l-3 1z" class="st4"/>
            <path d="M65 54h-2c-2 0-4 1-5 3-1-2-3-3-6-3h-1c-4 1-7 4-7 8 0 9 12 15 13 15h1c0 1 0 0 0 0 1 0 13-6 13-15 0-4-2-7-6-8zm-7 20c-3-1-11-6-10-12 0-3 1-5 3-5h1c3 0 4 3 4 3l2 1 1-1s1-3 4-3h1c2 0 4 2 4 5 0 6-8 11-10 12z" class="st4"/>
        </g>
        <g>
            <path d="M58 83c-4 2-11 9-12 10h-2l-12 1h-6l-1-1 1-9c4-1 11-4 17-8l3-1c0 1 0 2-3 4l-2 1c-2 1-3 2-2 5l5 2 4-1 5-2 5-2h3l-3 1z" class="st3"/>
        </g>
        <g>
            <path d="M58 74c-3-1-11-6-10-12 0-3 1-5 3-5h1c3 0 4 3 4 3l2 1 1-1s1-3 4-3h1c2 0 4 2 4 5 0 6-8 11-10 12z" class="st3"/>
        </g>
        <g>
            <path d="M36 34H25l-1-1 1-1h11l1 1-1 1z" class="st4"/>
            <path d="M30 39l-1-1V27l1-1 1 1v11l-1 1z" class="st4"/>
        </g>
    </g>
</svg>
