<svg xmlns="http://www.w3.org/2000/svg" viewBox="0 0 77 75">
    <defs/>
    <g transform="translate(.533)" fill-rule="nonzero" fill="none">
        <path d="M6.767 23.4s-1.5 1.1-3 2.5c-1.8 1.7-3.5 4.7-3.7 8.4-.5 7.3 1.9 9 3.9 11.6 0 0 2.5 3.2 5.4 5.6 2.8 2.5 15.6 13.2 24 17.5 8.5 4.2 13.6 5 18.8 5.1 5.6.1 10.7-1.8 13.8-6.6 3-4.5 5.9-11 6.4-31.6.4-17.6-2.7-23.3-5.4-27.8-2.8-4.6-10.3-9.5-27-3.7-16.3 5.8-33.2 19-33.2 19z"
              fill="#C6DEFF"/>
        <circle fill="#FFF" cx="26.367" cy="48.2" r="24"/>
        <g fill="#005A9E">
            <path d="M71.667 9.3c-.6 0-1.2-.1-1.8-.4-1-.5-1.8-1.3-2.2-2.4-.4-1.1-.3-2.2.2-3.3.5-1 1.3-1.8 2.4-2.2 1.1-.3 2.2-.3 3.2.2s1.8 1.3 2.2 2.4c.4 1.1.3 2.2-.2 3.3-.6 1.5-2.2 2.4-3.8 2.4zm0-7c-.3 0-.6.1-.9.2-.7.3-1.3.8-1.6 1.4-.3.7-.4 1.4-.1 2.1.3.7.8 1.3 1.4 1.6 1.4.7 3.1.1 3.7-1.3.3-.7.4-1.4.1-2.1-.3-.7-.8-1.3-1.4-1.6-.4-.2-.8-.3-1.2-.3zM63.167 12.9c-.3 0-.5-.1-.8-.2-.4-.2-.8-.6-.9-1-.2-.5-.1-.9.1-1.4.4-.9 1.5-1.3 2.4-.9.4.2.8.6.9 1 .2.5.1.9-.1 1.4-.2.7-.9 1.1-1.6 1.1zm0-2.6c-.3 0-.6.2-.8.5-.1.2-.1.4 0 .6.1.2.2.4.4.5.4.2.9 0 1.1-.4.1-.2.1-.4 0-.6-.1-.2-.2-.4-.4-.5 0-.1-.2-.1-.3-.1z"/>
        </g>
        <g fill="#005A9E">
            <path d="M64.467 50c-.5 0-.9-.4-.9-.9v-7.3c0-.5.4-.9.9-.9s.9.4.9.9v7.3c.1.5-.3.9-.9.9z"/>
            <path d="M59.967 45.5c0-.5.4-.9.9-.9h7.3c.5 0 .9.4.9.9s-.4.9-.9.9h-7.3c-.5 0-.9-.4-.9-.9z"/>
        </g>
        <g fill="#005A9E">
            <path d="M17.967 19.4c-.3 0-.5-.2-.5-.5v-3.7c0-.3.2-.5.5-.5s.5.2.5.5v3.7c0 .3-.2.5-.5.5z"/>
            <path d="M15.667 17.1c0-.3.2-.5.5-.5h3.7c.3 0 .5.2.5.5s-.2.5-.5.5h-3.7c-.3-.1-.5-.3-.5-.5z"/>
        </g>
        <g fill="#005A9E">
            <path d="M56.867 68.4c-.3 0-.5-.2-.5-.5v-3.7c0-.3.2-.5.5-.5s.5.2.5.5V68c-.1.2-.3.4-.5.4z"/>
            <path d="M54.467 66.1c0-.3.2-.5.5-.5h3.7c.3 0 .5.2.5.5s-.2.5-.5.5h-3.7c-.3 0-.5-.3-.5-.5z"/>
        </g>
        <path d="M48.067 59.7l-1-.5c1.7-3.3 2.6-7.1 2.6-10.9 0-6.2-2.4-12-6.7-16.5l.8-.8c4.5 4.6 7 10.8 7 17.3.1 4-.8 7.9-2.7 11.4zM42.167 31.1c-.2-.2-.4-.3-.5-.5-.2-.1-.3-.3-.5-.4l.7-.9c.2.1.3.3.5.4.2.2.4.3.6.5l-.8.9zM4.667 60.4a24.6 24.6 0 01-3.2-12.1c0-13.6 11.1-24.7 24.7-24.7 5.4 0 10.5 1.7 14.8 4.9l-.7.9c-4.1-3.1-9-4.7-14.1-4.7-13 0-23.5 10.6-23.5 23.5 0 4 1 8 3 11.5l-1 .7zM6.067 62.7c-.2-.3-.5-.7-.7-1l1-.6c.2.3.4.6.7 1l-1 .6zM26.167 73c-7.6 0-14.6-3.4-19.3-9.3l.9-.7c4.5 5.7 11.2 8.9 18.4 8.9 4 0 7.9-1 11.4-2.9l.6 1c-3.7 1.9-7.8 3-12 3zM37.167 64.7l-1.2-.2c.1-.5.2-.9.3-1.4l1.1.4c-.1.4-.2.7-.2 1.2z"
              fill="#005A9E"/>
        <path d="M14.467 57.493v-16c0-.83.184-1.454.552-1.87.368-.415.844-.623 1.428-.623.601 0 1.088.205 1.461.616.373.411.559 1.037.559 1.877v16c0 .84-.186 1.468-.559 1.884-.373.415-.86.623-1.461.623-.575 0-1.049-.21-1.421-.63-.373-.42-.56-1.046-.56-1.877zM36.393 42.45h-4.42v15c0 .864-.187 1.504-.56 1.922-.373.418-.855.627-1.446.627-.6 0-1.09-.211-1.467-.634-.377-.422-.566-1.06-.566-1.915v-15h-4.42c-.692 0-1.206-.158-1.542-.472-.337-.315-.505-.73-.505-1.247 0-.535.175-.957.525-1.267.35-.31.857-.465 1.521-.465h12.88c.7 0 1.221.16 1.562.479.341.32.512.737.512 1.253 0 .517-.173.932-.519 1.247-.345.314-.864.472-1.555.472z"
              fill="#005A9E"/>
    </g>
</svg>
