<svg xmlns="http://www.w3.org/2000/svg" viewBox="0 0 76 77">
    <g fill="none">
        <path d="M7.5 23.2S6 24.3 4.6 25.8c-1.7 1.8-3.4 4.7-3.6 8.4-.4 7.3 2 9 4 11.5 0 0 2.6 3.1 5.5 5.6 2.9 2.5 15.8 13 24.3 17.1 8.5 4.1 13.7 4.8 18.8 4.8 5.6 0 10.6-2 13.7-6.8 2.9-4.5 5.7-11.1 5.9-31.7.1-17.6-3.1-23.3-5.8-27.7-2.8-4.5-10.5-9.3-27.1-3.2C24.1 9.7 7.5 23.2 7.5 23.2z"
              fill="#C6DEFF"/>
        <g transform="translate(26.2 33.6)">
            <path d="M7.8 18.21l-4.833-.81L1.8 21.995s5.167.405 5.333.405c.167 0 .667-4.19.667-4.19z" fill="#FFF"/>
            <ellipse fill="#FFF" cx="28.3" cy="22.4" rx="21.5" ry="21"/>
            <path d="M46.31 31.4l.43 2.416 3.022 8.902s.288.89-.72.636c-.863-.254-13.091-1.78-13.091-1.78s-1.151-1.78-1.151-1.908c0-.127 11.51-8.266 11.51-8.266z"
                  fill="#FFF"/>
            <path d="M10.03 35.4C7.339 31.64 5.8 27.104 5.8 22.437 5.8 10.252 15.544.4 27.595.4c2.82 0 5.64.519 8.205 1.556l-.513 1.425a19.279 19.279 0 00-7.564-1.555c-11.154 0-20.256 9.204-20.256 20.481 0 4.408 1.41 8.556 3.846 12.056L10.03 35.4zm1.829 2L10.8 36.341l1.059-.941c.353.353.588.706.941 1.059l-.941.941zm15.239 6A21.73 21.73 0 0112.8 37.994l1.021-1.158c3.702 3.217 8.426 5.02 13.277 5.02 2.936 0 5.745-.644 8.425-1.803l1.405-.643 10.085 2.188-2.809-9.01.894-1.544c1.532-2.832 2.298-6.179 2.298-9.525 0-6.307-2.809-12.1-7.66-15.96L40.63 4.4c5.234 4.248 8.17 10.426 8.17 17.119 0 3.604-.894 7.079-2.553 10.168l-.51 1.03 2.808 8.881c.127.386 0 .901-.256 1.158-.255.258-.638.515-1.149.387l-10.085-2.189-.893.515c-2.809 1.287-5.873 1.931-9.064 1.931zm11.965-39c-.42-.353-.842-.588-1.263-.824l.632-1.176c.42.235.947.588 1.368.941L39.063 4.4z"
                  fill="#005A9E"/>
            <path d="M6.8 23.4c-1.787 0-3.574-.275-5.362-.686L.8 22.576 1.821 16.4l.766.275c1.404.411 2.809.549 4.213.549v1.647a18.17 18.17 0 01-3.83-.412l-.51 2.882c1.404.275 2.808.55 4.34.55V23.4zm18.285-1.185a16 16 0 01-.055 1.29h-9.22c.247 3.347 1.812 4.637 3.897 4.637 1.427 0 2.497-.384 3.759-1.262l1.098 1.509c-1.427 1.125-3.046 1.81-5.05 1.81-4.033 0-6.393-2.825-6.393-7.408 0-4.5 2.278-7.71 6.01-7.71 3.896 0 5.954 2.716 5.954 7.134zm-2.497-.576v-.165c0-2.826-1.125-4.39-3.402-4.39-1.921 0-3.183 1.345-3.375 4.555h6.777zm13.335-6.558c2.662 0 4.198 1.674 4.198 4.418V29.87h-2.524V19.855c0-2.167-.878-2.798-2.277-2.798-1.62 0-2.717 1.015-3.677 2.551v10.263h-2.525V15.41h2.168l.22 2.14c.987-1.482 2.524-2.47 4.417-2.47z"
                  fill="#005A9E"/>
        </g>
        <g transform="translate(13 4)">
            <path d="M5.4 8.6c-.7 0-1.4-.2-2-.5-1-.5-1.7-1.4-2.1-2.5-.3-1.1-.2-2.2.3-3.2C2.7.3 5.3-.4 7.4.7c2.1 1.1 2.8 3.7 1.7 5.8-.5 1-1.4 1.7-2.5 2.1-.4-.1-.8 0-1.2 0zM3 3c-.7 1.4-.2 3 1.1 3.8 1.4.7 3 .2 3.8-1.1.7-1.4.2-3-1.1-3.8C5.4 1.1 3.7 1.6 3 3zm8 11.9c-.3 0-.6-.1-.9-.2-.4-.2-.7-.6-.9-1.1-.1-.5-.1-1 .1-1.4.2-.4.6-.7 1.1-.9.5-.1 1-.1 1.4.1.9.5 1.2 1.6.7 2.5-.2.4-.6.7-1.1.9-.1.1-.2.1-.4.1zm0-2.6h-.2c-.2.1-.4.2-.5.4-.1.2-.1.4-.1.6.1.2.2.4.4.5.2.1.4.1.6.1.2-.1.4-.2.5-.4.2-.4.1-.9-.3-1.1-.1-.1-.3-.1-.4-.1z"
                  fill="#005A9E"/>
            <g fill="#005A9E">
                <path d="M41.3 17.5c-.5 0-.9-.4-.9-.9V9.3c0-.5.4-.9.9-.9s.9.4.9.9v7.3c0 .5-.4.9-.9.9z"/>
                <path d="M36.7 12.9c0-.5.4-.9.9-.9h7.3c.5 0 .9.4.9.9s-.4.9-.9.9h-7.3c-.5.1-.9-.3-.9-.9z"/>
            </g>
            <g fill="#005A9E">
                <path d="M5.4 34.7c-.3 0-.5-.2-.5-.5v-3.7c0-.3.2-.5.5-.5s.5.2.5.5v3.7c0 .3-.2.5-.5.5z"/>
                <path d="M3.1 32.4c0-.3.2-.5.5-.5h3.7c.3 0 .5.2.5.5s-.2.5-.5.5H3.6c-.3 0-.5-.2-.5-.5z"/>
            </g>
            <g fill="#005A9E">
                <path d="M2.7 59.2c-.3 0-.5-.2-.5-.5V55c0-.3.2-.5.5-.5s.5.2.5.5v3.7c0 .3-.2.5-.5.5z"/>
                <path d="M.3 56.9c0-.3.2-.5.5-.5h3.7c.3 0 .5.2.5.5s-.2.5-.5.5H.8c-.2-.1-.5-.3-.5-.5z"/>
            </g>
            <path d="M24 23.6c-1.6 0-2.8-1.3-2.8-2.8 0-1.6 1.3-2.8 2.8-2.8 1.6 0 2.8 1.3 2.8 2.8 0 1.5-1.3 2.8-2.8 2.8zm0-4.5c-.9 0-1.7.7-1.7 1.7 0 .9.7 1.7 1.7 1.7.9 0 1.7-.7 1.7-1.7-.1-1-.8-1.7-1.7-1.7z"
                  fill="#005A9E"/>
            <circle fill="#FFF" cx="24" cy="20.7" r="1.9"/>
        </g>
    </g>
</svg>
