<svg version="1.1" id="Layer_1" xmlns="http://www.w3.org/2000/svg" x="0" y="0" viewBox="0 0 88 88" xml:space="preserve"><defs/>
    <path class="st0" d="M64 85.3H29.8V6.8h17.8v1.9H31.8v74.7h30.3V8.7h-7.4V6.8H64z"/>
    <path class="st0" d="M49.9 6.8h2.6v2h-2.6z"/>
    <path class="st0"
          d="M58.7 7.7h-2V4.6H37.1v3.1h-1.9v-5h23.5zM85.3 85.3H62.1V25h23.2v60.3zM64 83.4h19.3V26.9H64v56.5zM3.7 83.4h23.5v2H3.7z"/>
    <path class="st0" d="M9.4 65h2v19.3h-2z"/>
    <path class="st0"
          d="M15.4 66h-10c-1.5 0-2.8-1.2-2.8-2.8v-11c0-1.5 1.2-2.8 2.8-2.8h9.9c1.5 0 2.8 1.2 2.8 2.8v11.1c0 1.5-1.2 2.7-2.7 2.7zm-10-14.6c-.4 0-.8.4-.8.8v11.1c0 .4.4.8.8.8h9.9c.4 0 .8-.4.8-.8V52.2c0-.4-.4-.8-.8-.8H5.4zM20.8 76.7h-5.2c-.9 0-1.6-.7-1.6-1.6v-6c0-.9.7-1.6 1.6-1.6h5.2c.9 0 1.6.7 1.6 1.6v6c0 .8-.7 1.6-1.6 1.6zm-4.8-2h4.5v-5.3H16v5.3z"/>
    <path class="st0"
          d="M18.9 80h-8.5v-2h6.5v-2.3h2zM9.5 46h-2V22.3h23.3v2H9.5zM40.5 18.5h-6.7v-7.3h6.7v7.3zm-4.8-2h2.8v-3.4h-2.8v3.4zM50.3 18.5h-6.7v-7.3h6.7v7.3zm-4.8-2h2.8v-3.4h-2.8v3.4zM60.1 18.5h-6.7v-7.3h6.7v7.3zm-4.7-2h2.8v-3.4h-2.8v3.4zM40.5 28.9h-6.7v-7.3h6.7v7.3zm-4.8-2h2.8v-3.4h-2.8v3.4zM50.3 28.9h-6.7v-7.3h6.7v7.3zm-4.8-2h2.8v-3.4h-2.8v3.4zM60.1 28.9h-6.7v-7.3h6.7v7.3zm-4.7-2h2.8v-3.4h-2.8v3.4zM40.5 39.3h-6.7V32h6.7v7.3zm-4.8-2h2.8v-3.4h-2.8v3.4zM50.3 39.3h-6.7V32h6.7v7.3zm-4.8-2h2.8v-3.4h-2.8v3.4zM60.1 39.3h-6.7V32h6.7v7.3zm-4.7-2h2.8v-3.4h-2.8v3.4zM40.5 49.6h-6.7v-7.3h6.7v7.3zm-4.8-1.9h2.8v-3.4h-2.8v3.4zM50.3 49.6h-6.7v-7.3h6.7v7.3zm-4.8-1.9h2.8v-3.4h-2.8v3.4zM60.1 49.6h-6.7v-7.3h6.7v7.3zm-4.7-1.9h2.8v-3.4h-2.8v3.4zM40.5 60h-6.7v-7.3h6.7V60zm-4.8-1.9h2.8v-3.4h-2.8v3.4zM50.3 60h-6.7v-7.3h6.7V60zm-4.8-1.9h2.8v-3.4h-2.8v3.4zM60.1 60h-6.7v-7.3h6.7V60zm-4.7-1.9h2.8v-3.4h-2.8v3.4zM40.5 70.4h-6.7v-7.3h6.7v7.3zm-4.8-1.9h2.8v-3.4h-2.8v3.4zM50.3 70.4h-6.7v-7.3h6.7v7.3zm-4.8-1.9h2.8v-3.4h-2.8v3.4zM60.1 70.4h-6.7v-7.3h6.7v7.3zm-4.7-1.9h2.8v-3.4h-2.8v3.4zM6.6 74.5h-2c-1.1 0-2-.9-2-2v-2.3c0-1.1.9-2 2-2h2c1.1 0 2 .9 2 2v2.3c0 1.1-.9 2-2 2zm-1.9-4.3v2.3h2v-2.3h-2z"/>
    <path class="st0" d="M10.4 77H4.7v-3.5h1.9V75h3.8zM31.8 24.3H2.7V18H17v2H4.6v2.3h25.2V20h-5.7v-2h7.7z"/>
    <path class="st0"
          d="M19.4 18H22v2h-2.6zM27.6 80h-2V29.9h-2.5v33.3h-1.9V28h6.4zM18.2 47h-6.4V28h6.4v19zm-4.5-1.9h2.5V29.9h-2.5v15.2zM63 25h21.3v2H63z"/>
    <path class="st0"
          d="M81.5 26.9h-5.9v-2h4v-8.8c0-.4-.2-.7-.5-.9-.3-.2-.7-.2-1-.1l-14.5 7.4-.9-1.7 14.5-7.4c1-.4 2.1-.4 3 .2.9.6 1.4 1.5 1.4 2.6v10.7zM76.8 84.1h-1.9v-4.4h-2.4v4.4h-1.9v-6.4h6.2zM49.9 84.1H48v-4.4h-2.4v4.4h-2v-6.4h6.3zM33.7 73.3H55v2H33.7zM67.1 73.3h13.8v2H67.1zM81.9 37.5H66.1V30h15.8v7.5zm-13.8-1.9H80v-3.7H68.1v3.7zM81.9 48.2H66.1v-7.6h15.8v7.6zm-13.8-2H80v-3.7H68.1v3.7zM81.9 58.8H66.1v-7.6h15.8v7.6zm-13.8-1.9H80v-3.7H68.1v3.7zM81.9 69.4H66.1v-7.6h15.8v7.6zm-13.8-1.9H80v-3.7H68.1v3.7zM57.4 73.3H60v2h-2.6z"/></svg>
