<svg version="1.1" id="Layer_1" xmlns="http://www.w3.org/2000/svg" x="0" y="0" viewBox="0 0 88 88" xml:space="preserve"><style>.st1{fill:#005a9e}</style>
    <path d="M14.5 30.2s-1.5 1.1-2.9 2.6c-1.7 1.8-3.4 4.7-3.6 8.4-.4 7.3 2 9 4 11.5 0 0 2.6 3.1 5.5 5.6s15.8 13 24.3 17.1c8.5 4.1 13.7 4.8 18.8 4.8 5.6 0 10.6-2 13.7-6.8 2.9-4.5 5.7-11.1 5.9-31.7.1-17.6-3.1-23.3-5.8-27.7-2.8-4.5-10.5-9.3-27.1-3.2-16.2 5.9-32.8 19.4-32.8 19.4z"
          fill="#c6deff"/>
    <path d="M53.5 24.8c3 3.7 4.7 8.4 4.7 13.6 0 12-9.7 21.7-21.7 21.7s-21.7-9.7-21.7-21.7c0-11.8 9.4-21.4 21.1-21.7V14h-1.7v-2.4h5.3v2.6h-1.9l.3 2.6c5.6.4 10.7 2.9 14.3 6.7l2-1.8s-.8-1.2-.9-1.2c0-.1 1.7-1.4 1.7-1.4l3.4 4.2-1.9 1.2-1-1.2-2 1.5z"
          fill="#fff"/>
    <path class="st1"
          d="M34.9 83.3c-.3 0-.6 0-.8-.1-2.3-.5-3.8-2.7-3.4-5 .2-1.1.9-2.1 1.8-2.7.9-.6 2.1-.9 3.2-.6 1.1.2 2.1.9 2.7 1.8.6.9.9 2.1.6 3.2s-.9 2.1-1.8 2.7c-.6.4-1.5.7-2.3.7zm0-7.1c-1.3 0-2.5.9-2.7 2.2-.3 1.5.7 3 2.2 3.3 1.5.3 3-.7 3.3-2.2.1-.7 0-1.5-.4-2.1-.4-.6-1-1-1.8-1.2h-.6zM41.7 72.9h-.4c-.5-.1-.9-.4-1.2-.8-.3-.4-.4-.9-.3-1.4.2-1 1.1-1.6 2.1-1.4 1 .2 1.6 1.1 1.4 2.1-.1.5-.4.9-.8 1.2-.1.2-.4.3-.8.3zm0-2.7c-.4 0-.7.3-.8.7 0 .2 0 .4.1.6.1.2.3.3.5.4.5.1.9-.2 1-.7.1-.5-.2-.9-.7-1h-.1zM77.8 67.4c-.5 0-.9-.4-.9-.9v-7.3c0-.5.4-.9.9-.9s.9.4.9.9v7.3c0 .5-.4.9-.9.9z"/>
    <path class="st1"
          d="M73.2 62.9c0-.5.4-.9.9-.9h7.3c.5 0 .9.4.9.9s-.4.9-.9.9h-7.3c-.5 0-.9-.4-.9-.9zM69.6 25.6c-.3 0-.5-.2-.5-.5v-3.7c0-.3.2-.5.5-.5s.5.2.5.5v3.7c0 .3-.3.5-.5.5z"/>
    <path class="st1" d="M67.2 23.2c0-.3.2-.5.5-.5h3.7c.3 0 .5.2.5.5s-.2.5-.5.5h-3.7c-.3 0-.5-.2-.5-.5z"/>
    <g><path class="st1" d="M65.4 76.5c-.3 0-.5-.2-.5-.5v-3.7c0-.3.2-.5.5-.5s.5.2.5.5V76c0 .3-.2.5-.5.5z"/>
        <path class="st1" d="M63 74.2c0-.3.2-.5.5-.5h3.7c.3 0 .5.2.5.5s-.2.5-.5.5h-3.7c-.2-.1-.5-.3-.5-.5z"/></g>
    <g><path class="st1" d="M36.9 42.1c-2 0-3.7-1.7-3.7-3.7s1.7-3.7 3.7-3.7 3.7 1.7 3.7 3.7-1.7 3.7-3.7 3.7zm0-6.2c-1.4 0-2.5 1.1-2.5 2.5s1.1 2.5 2.5 2.5 2.5-1.1 2.5-2.5-1.1-2.5-2.5-2.5z"/>
        <path class="st1"
              d="M36.9 60.7c-12.2 0-22.1-10-22.1-22.3s9.9-22.3 22.1-22.3S59 26.1 59 38.4s-9.9 22.3-22.1 22.3zm0-43.5C25.4 17.2 16 26.7 16 38.4s9.4 21.2 20.9 21.2 20.9-9.5 20.9-21.2-9.4-21.2-20.9-21.2z"/>
        <path class="st1"
              d="M35.6 58h-.4c-.3 0-.5-.1-.8-.1-9.6-1.3-16.8-9.6-16.8-19.4 0-10.8 8.7-19.6 19.4-19.6 2.8 0 5.5.6 8 1.7.3.2.7.3 1 .5l-.6 1c-.3-.2-.6-.3-.9-.5-2.5-1.1-5-1.6-7.6-1.6-10 0-18.2 8.3-18.2 18.4 0 9.2 6.8 17.1 15.8 18.3.2 0 .5.1.7.1h.4V58zM36.9 58v-1.2h1L38 58h-1.1zM39.2 57.8l-.1-1.2c9.1-1.1 16-9 16-18.3 0-5.3-2.3-10.4-6.2-13.9l.8-.9c4.2 3.7 6.6 9.1 6.6 14.8 0 10-7.4 18.4-17.1 19.5zM47.8 23.7c-.2-.1-.4-.3-.6-.4l-.3-.3-.4-.2.6-1 .4.3.4.3c.2.1.4.3.6.4l-.7.9zM38.5 16.8h-1.2v-2.3h-.9v2.3h-1.2v-3.4h3.3z"/>
        <path class="st1"
              d="M39.3 14.5h-4.9c-.5 0-1-.4-1-1V12c0-.5.4-1 1-1h4.9c.5 0 1 .4 1 1v1.5c0 .6-.5 1-1 1zm-4.7-1.1h4.5v-1.2h-4.5v1.2zM53.9 25.5l-.8-.9 1.7-1.5-.6-.6-1.7 1.5-.7-.9 2.6-2.3 2.1 2.4z"/>
        <path class="st1"
              d="M56.9 25s-.1 0 0 0c-.3 0-.6-.1-.7-.3L52.9 21c-.4-.4-.3-1 .1-1.4l1.2-1c.2-.2.4-.3.7-.2.3 0 .5.1.7.3l3.2 3.6c.2.2.2.5.2.7 0 .3-.1.5-.3.7l-1.2 1c-.2.2-.4.3-.6.3zm.1-1.1zm-3.1-3.6l3 3.4.9-.8-3-3.4-.9.8zM21.2 37.8h12.7V39H21.2zM40 37.8h2.6V39H40zM43.8 37.8h1.3V39h-1.3z"/></g></svg>
