<svg xmlns="http://www.w3.org/2000/svg" xmlns:xlink="http://www.w3.org/1999/xlink"
     viewBox="11.922 0.763 614.484 631.298">
    <defs/>
    <defs>
        <path d="M294.99 399.27c-18.74 0-37.48-6.91-51.29-18.74-26.63-22.69-44.38-54.25-49.31-89.75-1.68-11.93-15.09-107.4-16.77-119.34-.98-2.95-12.82-78.89 30.58-128.21C232.85 14.63 270.33.82 320.63 1.81c49.31-.99 86.79 12.82 112.43 41.42 43.4 50.3 31.56 125.26 30.57 128.21-1.77 11.94-15.97 107.41-17.75 119.34-4.93 34.52-22.68 67.06-49.31 89.75-13.81 11.83-32.55 18.74-51.28 18.74h-50.3zm-72-344.2c-37.48 42.41-26.63 112.43-26.63 112.43 1.68 11.93 15.09 107.4 16.77 119.33 3.94 30.58 19.72 58.19 42.41 77.92 10.85 8.87 24.65 14.79 38.46 14.79h50.3c13.81 0 27.61-4.93 38.46-14.79 22.69-19.73 38.47-47.34 42.41-77.92 1.68-11.93 15.09-107.4 16.77-119.33 0-.99 10.85-70.02-26.63-113.42-20.71-23.67-53.26-35.5-97.64-34.52v-1.97 1.97c.99.99-.99.99-2.96.99-40.43 0-71.99 11.83-91.72 34.52z"
              id="a"/>
        <path d="M320.63 629.06H12.92c4.74-25.44 7.37-39.58 7.89-42.41 12.82-71.01 63.12-129.2 131.17-150.89 3.62-1.19 21.7-7.1 54.25-17.75l5.91 18.73c-32.54 10.66-50.62 16.57-54.24 17.76-62.13 20.71-107.5 72.98-118.35 136.1-.26 1.31-1.58 7.89-3.94 19.72h284.03v18.74h.99z"
              id="b"/>
        <path d="M315.7 629.06v-19.72h284.04c-2.37-11.84-3.69-18.41-3.95-19.73-11.83-64.1-57.2-116.38-118.35-136.1-3.35-1.12-20.12-6.71-50.3-16.77l5.92-18.73c30.18 10.05 46.95 15.64 50.3 16.76 68.05 22.68 118.35 80.87 131.17 150.9.59 2.89 3.55 17.35 8.88 43.39H315.7z"
              id="c"/>
        <path d="M200.31 429.84l-1.97-3.94 35.5-64.11 16.77 9.86c-18.94 33.14-29.46 51.55-31.56 55.23 10.85 24.66 65.09 146.95 106.51 185.41-.79.93-4.73 5.53-11.83 13.81-73.64-126.89-111.45-192.32-113.42-196.26z"
              id="d"/>
        <path d="M313.73 612.29c41.42-38.46 95.66-160.75 106.51-185.41-2.1-3.68-12.62-22.09-31.56-55.23l16.77-9.86 35.5 64.11-1.97 3.94c-1.97 5.92-63.12 150.9-112.43 196.26a8817.92 8817.92 0 01-12.82-13.81z"
              id="e"/>
        <path d="M240.74 115.23c-28.6 21.7-43.39 68.05-43.39 68.05l-18.74-5.92c.99-2.96 18.74-61.14 59.18-83.83.52-.33 3.15-1.97 7.89-4.93 2.95 4.73 4.6 7.36 4.93 7.89 1.97 3.95 56.21 85.8 199.22 73.97.19 1.87 1.77 16.86 1.97 18.74-8.88 1.97-18.74 1.97-27.61 1.97-111.45 0-165.69-55.23-183.45-75.94z"
              id="f"/>
        <path d="M247.65 384.47c1.58-1.08 14.2-9.76 15.78-10.85 0 .99 48.32 67.07 128.21 137.09-.86.92-5.13 5.52-12.82 13.81-86.13-91.39-129.86-138.07-131.17-140.05z"
              id="g"/>
        <path d="M248.63 509.73c79.89-70.03 127.23-136.11 128.22-137.09 1.57 1.08 14.2 9.76 15.78 10.85-1.98 3.94-49.32 70.02-131.17 141.03-2.57-2.96-11.54-13.32-12.83-14.79z"
              id="h"/>
        <path d="M129.3 581.72v38.46h-19.73v-38.46h19.73z" id="i"/>
        <path d="M527.74 581.72v38.46h-19.72v-38.46h19.72z" id="j"/>
    </defs>
    <use xlink:href="#a"/>
    <use xlink:href="#a" fill-opacity="0" stroke="#000" stroke-opacity="0"/>
    <use xlink:href="#b"/>
    <use xlink:href="#b" fill-opacity="0" stroke="#000" stroke-opacity="0"/>
    <use xlink:href="#c"/>
    <use xlink:href="#c" fill-opacity="0" stroke="#000" stroke-opacity="0"/>
    <use xlink:href="#d"/>
    <use xlink:href="#d" fill-opacity="0" stroke="#000" stroke-opacity="0"/>
    <use xlink:href="#e"/>
    <use xlink:href="#e" fill-opacity="0" stroke="#000" stroke-opacity="0"/>
    <g>
        <use xlink:href="#f"/>
        <use xlink:href="#f" fill-opacity="0" stroke="#000" stroke-opacity="0"/>
    </g>
    <g>
        <use xlink:href="#g"/>
        <use xlink:href="#g" fill-opacity="0" stroke="#000" stroke-opacity="0"/>
    </g>
    <g>
        <use xlink:href="#h"/>
        <use xlink:href="#h" fill-opacity="0" stroke="#000" stroke-opacity="0"/>
    </g>
    <g>
        <use xlink:href="#i"/>
        <use xlink:href="#i" fill-opacity="0" stroke="#000" stroke-opacity="0"/>
    </g>
    <g>
        <use xlink:href="#j"/>
        <use xlink:href="#j" fill-opacity="0" stroke="#000" stroke-opacity="0"/>
    </g>
</svg>
