<svg xmlns="http://www.w3.org/2000/svg" viewBox="0 0 74 75"><g fill="none"><path d="M7.5 23.2S6 24.3 4.6 25.8c-1.7 1.8-3.4 4.7-3.6 8.4-.4 7.3 2 9 4 11.5 0 0 2.6 3.1 5.5 5.6 2.9 2.5 15.8 13 24.3 17.1 8.5 4.1 13.7 4.8 18.8 4.8 5.6 0 10.6-2 13.7-6.8 2.9-4.5 5.7-11.1 5.9-31.7.1-17.6-3.1-23.3-5.8-27.7-2.8-4.5-10.5-9.3-27.1-3.2C24.1 9.7 7.5 23.2 7.5 23.2z" fill="#C6DEFF"/><path d="M26.9 65.2S32.4 70 37 71.7c0 0 7.2-3.2 9.8-6.3 0 0 1.8-.1 3.4 1.1l-1.5 2.6s.3.5.7.7c.4.2 7.3 4.2 7.3 4.2s-.2-.3 0-.4c.2-.1.4-4.2.4-4.2l3.7-2.5v-.3L56 62.9l.9-1.9s-1.1-2.1-4.6-3.5c0 0 6.6-15.3 3.8-24.4 0 0-14.1-3.4-18.2-7.4 0 0-.9-.6-1.9 0-1 .6-4.2 4.9-17.3 6.9 0 0-.7 0-.9 1.3-.2 1.4-.8 13 3.9 22.9l-3.8 3.1s-.6.8-.2 1.7c.4.9.6 1.1.6 1.1l-4.7 3.2s-.3.3.2.8 3.4 2.5 3.4 2.5l.3 3.7s.2.4.6.2l7.1-4.1-.3-3.1 2-.7z" fill="#FFF"/><path d="M17.5 12.7c-.5 0-1-.1-1.5-.3-1.1-.4-1.9-1.2-2.4-2.2-.5-1-.5-2.2-.1-3.3.8-2.2 3.3-3.3 5.5-2.4 2.2.8 3.3 3.3 2.4 5.5-.6 1.6-2.2 2.7-3.9 2.7zm-2.6-5.3c-.3.7-.3 1.5 0 2.1.3.7.8 1.2 1.5 1.5 1.4.6 3.1-.2 3.6-1.6.6-1.4-.2-3.1-1.6-3.6-1.3-.5-2.9.2-3.5 1.6zm9.3 10.9c-.2 0-.4 0-.7-.1-.5-.2-.8-.5-1-1-.2-.4-.2-.9 0-1.4.2-.5.5-.8 1-1 .4-.2.9-.2 1.4 0 .5.2.8.5 1 1 .2.4.2.9 0 1.4-.2.5-.5.8-1 1-.3.1-.5.1-.7.1zm0-2.6c-.1 0-.2 0-.3.1-.2.1-.4.3-.4.5-.2.4 0 .9.5 1.1.2.1.4.1.6 0 .2-.1.4-.3.4-.5.1-.2.1-.4 0-.6-.1-.2-.3-.4-.5-.4-.1-.2-.2-.2-.3-.2z" fill="#005A9E"/><g fill="#005A9E"><path d="M57.6 21c-.5 0-.9-.4-.9-.9v-7.3c0-.5.4-.9.9-.9s.9.4.9.9v7.3c0 .5-.4.9-.9.9z"/><path d="M53.1 16.5c0-.5.4-.9.9-.9h7.3c.5 0 .9.4.9.9s-.4.9-.9.9H54c-.5 0-.9-.4-.9-.9z"/></g><g fill="#005A9E"><path d="M5.5 42.6c-.3 0-.5-.2-.5-.5v-3.7c0-.3.2-.5.5-.5s.5.2.5.5v3.7c-.1.3-.3.5-.5.5z"/><path d="M3.1 40.2c0-.3.2-.5.5-.5h3.7c.3 0 .5.2.5.5s-.2.5-.5.5H3.6c-.3 0-.5-.2-.5-.5z"/></g><g fill="#005A9E"><path d="M67.6 48.9c-.3 0-.5-.2-.5-.5v-3.7c0-.3.2-.5.5-.5s.5.2.5.5v3.7c0 .3-.2.5-.5.5z"/><path d="M65.3 46.6c0-.3.2-.5.5-.5h3.7c.3 0 .5.2.5.5s-.2.5-.5.5h-3.7c-.3-.1-.5-.3-.5-.5z"/></g><g fill="#005A9E"><path d="M37 66.8l-.2-.1c-16.2-6.6-15.4-25.8-15.1-29.6.1-.6.5-1.2 1.2-1.3.6-.1 1.2-.2 1.7-.3l.2 1.1-1.8.3c-.1 0-.2.1-.2.2-.3 3.6-1.1 21.9 14.2 28.3.3-.1.9-.4 1.6-.7 13.6-7.3 12.9-24.2 12.6-27.5 0-.1-.1-.2-.2-.2-5.9-.7-11.5-3.9-13.7-5.3-.3-.2-.7-.2-1 0-1.2.9-3.7 2.5-7.4 3.8l-.4-1.1c3.6-1.2 6-2.8 7.1-3.7.7-.5 1.6-.5 2.3-.1 2.1 1.3 7.5 4.5 13.2 5.1.7.1 1.2.6 1.2 1.3.3 3.4 1 21-13.2 28.7-1 .5-1.9.9-1.9.9l-.2.2z"/><path d="M25.9 36.5l-.3-1.1c.4-.1.9-.2 1.3-.3l.3-.1.3 1.1-.3.1c-.4.1-.8.2-1.3.3z"/><path d="M37 72.3l-.2-.1c-9.1-3.7-15.1-10.8-18.1-21-2.3-8-1.8-15.6-1.6-17.7.1-.6.5-1.2 1.2-1.2 9.4-1.3 15.2-5.2 17.2-6.8.7-.5 1.6-.6 2.3-.1 2.2 1.4 9.9 6.1 17.8 6.9.7.1 1.2.6 1.2 1.3.4 4.3 1.5 26.2-15.1 36.4l-.6-1c16-9.9 14.9-31.2 14.6-35.3 0-.1-.1-.2-.2-.2-7.9-.9-15.4-5.3-18.3-7.1-.3-.2-.7-.2-1 0-2.1 1.7-8.1 5.7-17.8 7.1-.1 0-.2.1-.2.2-.4 4.7-1.5 28.9 18.8 37.3.5-.2 1.1-.5 1.2-.5l.5 1.1c-.2.1-1.3.6-1.4.6l-.3.1z"/><path d="M39.8 71l-.5-1c.4-.2.7-.4 1-.6l.6 1c-.4.3-.8.5-1.1.6zm-4.6-16c-.5 0-1-.2-1.4-.6L29.3 50c-.9-.9-.9-2.5 0-3.4.5-.5 1.1-.7 1.7-.7.6 0 1.2.2 1.7.7l2.3 2.3c.1.1.2.1.3 0l6.5-6.5c.5-.5 1.1-.7 1.7-.7.6 0 1.3.3 1.7.7.9.9.9 2.5 0 3.4l-7 7-1.5 1.6c-.5.4-1 .6-1.5.6zm-4.3-7.9c-.3 0-.6.1-.9.4-.2.2-.4.5-.4.9s.1.6.4.9l4.5 4.4c.3.3.9.3 1.2 0l2-2 6.6-6.6c.2-.2.4-.5.4-.9s-.1-.6-.4-.9c-.2-.2-.5-.4-.9-.4-.3 0-.6.1-.9.4L36 49.8c-.5.5-1.4.5-1.9 0l-2.3-2.3c-.2-.2-.5-.4-.9-.4zM21.1 69H21c-.3 0-.5-.2-.6-.5l-4-7.8.2-.3c1-1.7 4.5-3.5 4.9-3.7l.5 1c-.9.5-3.4 1.8-4.3 3l3.5 6.8c1.1-1 3.4-2.9 5.9-3.1l.1 1.2c-2.5.2-4.8 2.4-5.5 3-.1.4-.3.4-.6.4z"/><path d="M17.4 74.6c-.2 0-.3 0-.5-.1-.3-.2-.5-.5-.5-.9v-3.9l-3.6-2.2c-.3-.2-.5-.5-.5-.8 0-.3.2-.6.4-.8l5-3.4.7 1-4.7 3.2 3.9 2.4v4.3l6.6-3.9-3.1-.5.1-1.2 4 .4c.4.1.7.3.7.7.1.4-.1.7-.4.9l-7.7 4.5c0 .2-.2.3-.4.3z"/><path d="M23.282 66.757l1.012-.645 1.611 2.531-1.012.645zM52.9 69.1c-.2 0-.5-.1-.6-.3-.7-.7-3-2.8-5.5-3l.1-1.2c2.5.2 4.8 2.1 5.9 3.1l.7-1.3 1 .5-.9 1.7c-.1.3-.4.4-.7.5.1 0 0 0 0 0zm1.039-3.664l.457-.89 1.067.55-.457.889zM56 64.2l-1-.5 1.4-2.7c-.9-1.1-3.3-2.5-4.3-3l.5-1c.4.2 3.9 2 4.9 3.7l.2.3-1.7 3.2z"/><path d="M56.6 74.7c-.2 0-.4 0-.5-.1L48.4 70c-.3-.2-.5-.6-.4-.9.1-.4.4-.7.7-.7l4-.4.1 1.2-3.1.3 6.6 3.9v-4.3l3.9-2.4-4.7-3.2.7-1 5 3.4c.3.2.4.5.4.8 0 .3-.2.6-.5.8l-3.6 2.2v3.9c0 .4-.2.7-.5.9-.1.1-.3.2-.4.2z"/><path d="M48.091 68.744l1.611-2.53 1.013.644-1.612 2.53z"/></g></g></svg>
