<svg version="1.1" id="Layer_1" xmlns="http://www.w3.org/2000/svg" x="0" y="0" viewBox="0 0 88 88" xml:space="preserve"><style>.st1{fill:#005a9e}</style>
    <path d="M14.5 30.2s-1.5 1.1-2.9 2.6c-1.7 1.8-3.4 4.7-3.6 8.4-.4 7.3 2 9 4 11.5 0 0 2.6 3.1 5.5 5.6s15.8 13 24.3 17.1c8.5 4.1 13.7 4.8 18.8 4.8 5.6 0 10.6-2 13.7-6.8 2.9-4.5 5.7-11.1 5.9-31.7.1-17.6-3.1-23.3-5.8-27.7-2.8-4.5-10.5-9.3-27.1-3.2-16.2 5.9-32.8 19.4-32.8 19.4z"
          fill="#c6deff"/>
    <path d="M28.8 32.7h-1.3v2.9h6.2s-2.1 2.8-2.5 6h-7.4l1.6 3.1h5.2s-.2 6 1.2 7.7h-7l2.2 3.1h5.7l1.3 2.4h-6.5l-2.4 2.2h10.3c.2 0 5.8 8.1 16.1 8.1S70.6 62.3 73.7 50c0 0 2.2-7.9-4.1-17.1l1.6-1.7 1.2 1 1.5-1.1.2-.5-3.3-3.7-1.9 1.4.8 1.5-1.7 1.3s-5.9-5.7-14.4-6.4V22H55v-2.2h-5.6v2.1h1.8v2.9s-9.9.7-15.3 7.8H29"
          fill="#fff"/>
    <path class="st1"
          d="M79.4 14.2c-.7 0-1.3-.2-1.9-.5-1-.5-1.8-1.4-2.1-2.5-.4-1-.3-2.2.2-3.2 1.1-2.1 3.6-2.9 5.7-1.9 2.1 1.1 2.9 3.6 1.9 5.7-.5 1-1.4 1.8-2.5 2.1-.4.2-.9.3-1.3.3zm0-7c-1 0-2 .6-2.5 1.5-.3.7-.4 1.4-.2 2.1.2.7.7 1.3 1.4 1.6.7.3 1.4.4 2.1.2.7-.2 1.3-.7 1.6-1.4.7-1.4.1-3.1-1.2-3.7-.3-.2-.8-.3-1.2-.3zM70.7 17.5c-.3 0-.6-.1-.8-.2-.4-.2-.8-.6-.9-1.1-.2-.5-.1-1 .1-1.4.2-.4.6-.8 1.1-.9.5-.1 1-.1 1.4.1.4.2.8.6.9 1.1.2.5.1 1-.1 1.4-.4.7-1 1-1.7 1zm0-2.6h-.3c-.2.1-.4.2-.5.4-.1.2-.1.4 0 .6.1.2.2.4.4.5.4.2.9 0 1.1-.4.1-.2.1-.4 0-.6-.1-.2-.2-.4-.4-.5h-.3zM17.5 21.6c-.5 0-.9-.4-.9-.9v-7.3c0-.5.4-.9.9-.9s.9.4.9.9v7.3c.1.5-.4.9-.9.9z"/>
    <path class="st1"
          d="M13 17.1c0-.5.4-.9.9-.9h7.3c.5 0 .9.4.9.9s-.4.9-.9.9h-7.3c-.5 0-.9-.4-.9-.9zM80.1 59c-.3 0-.5-.2-.5-.5v-3.7c0-.3.2-.5.5-.5s.5.2.5.5v3.7c0 .3-.2.5-.5.5z"/>
    <path class="st1" d="M77.8 56.6c0-.3.2-.5.5-.5H82c.3 0 .5.2.5.5s-.2.5-.5.5h-3.7c-.3 0-.5-.2-.5-.5z"/>
    <g><path class="st1" d="M50.7 79.7c-.3 0-.5-.2-.5-.5v-3.7c0-.3.2-.5.5-.5s.5.2.5.5v3.7c-.1.2-.3.5-.5.5z"/>
        <path class="st1" d="M48.3 77.3c0-.3.2-.5.5-.5h3.7c.3 0 .5.2.5.5s-.2.5-.5.5h-3.7c-.3 0-.5-.2-.5-.5z"/></g>
    <g><path class="st1" d="M31.7 42.4h-6.2v-1.2h5.3c.4-1.7 1.1-3.4 1.9-5h-3.1V35h5.1l-.5 1c-1.1 1.9-1.9 3.9-2.3 6l-.2.4zM32.3 53.2h-6.9V52h5.4c-.4-1.8-.7-3.6-.7-5.4v-1.1h-2.3v-1.2h3.6v.6c0 .5-.1 1.1-.1 1.7 0 2 .3 4 .8 5.8l.2.8zM35.1 58.7h-4.2v-1.2H33c-.2-.4-.4-.8-.6-1.1h-5.6v-1.2h6.3l.2.3c.2.5.5 1 .8 1.6l1 1.6z"/>
        <path class="st1"
              d="M52.4 68.9c-6.3 0-12.3-2.7-16.6-7.4l-.6-.7.8-.8.6.7c4 4.5 9.7 7 15.7 7 11.6 0 21.1-9.5 21.1-21.1 0-11.6-9.5-21.1-21.1-21.1-6 0-11.8 2.6-15.8 7.1-.1.1-.2.3-.3.4l-.5.6h-7.1v-1.2h6.6l.2-.2c.1-.1.2-.3.4-.4 4.2-4.8 10.3-7.5 16.7-7.5 12.3 0 22.2 10 22.2 22.2S64.6 68.9 52.4 68.9z"/>
        <path class="st1"
              d="M52.4 66.3c-4.9 0-9.6-1.9-13.2-5.3H25.5v-1.2h14.1l.2.2c3.4 3.3 7.9 5.1 12.6 5.1 10.1 0 18.2-8.3 18.2-18.5s-8.2-18.5-18.2-18.5c-4.8 0-9.4 1.9-12.8 5.3l-.2.2h-4.1v-1.2h3.6c3.6-3.6 8.4-5.5 13.5-5.5 10.7 0 19.4 8.8 19.4 19.6s-8.7 19.8-19.4 19.8z"/>
        <path class="st1"
              d="M29.1 41.3h5.6v1.2h-5.6zM28.5 52h5.6v1.2h-5.6zM32.6 57.5h5.6v1.2h-5.6zM54 25h-1.2v-2.3h-.9V25h-1.1v-3.5H54z"/>
        <path class="st1"
              d="M54.8 22.7h-4.9c-.5 0-1-.4-1-1v-1.5c0-.5.4-1 1-1h4.9c.5 0 1 .4 1 1v1.5c0 .5-.4 1-1 1zm-4.7-1.2h4.5v-1.2h-4.5v1.2zM69.5 33.7l-.8-.9 1.7-1.5-.6-.7-1.7 1.5-.8-.9 2.6-2.2 2.2 2.4z"/>
        <path class="st1"
              d="M72.5 33.1c-.1 0-.1 0 0 0-.3 0-.6-.1-.7-.3l-3.2-3.7c-.4-.4-.3-1 .1-1.4l1.2-1c.2-.2.5-.3.7-.2.3 0 .5.1.7.3l3.2 3.7c.2.2.3.5.2.7 0 .3-.1.5-.3.7l-1.2 1c-.3.1-.5.2-.7.2zm.1-1.1zm-3.1-3.5l3 3.4.9-.8-3-3.4-.9.8zM27.2 35.1h1.1v1.2h-1.1zM28.1 57.5h1.4v1.2h-1.4z"/>
        <path transform="rotate(-50.119 57.58 49.409)" class="st1" d="M57 48.8h1.1V50H57z"/>
        <path class="st1"
              d="M49.5 59.3c-.2 0-.4 0-.5-.1-.5-.2-.7-.8-.5-1.3l2.6-9.2h-6.6c-.5 0-1-.3-1.2-.8-.2-.5-.1-1 .2-1.4L54 34.2c.4-.4 1-.6 1.5-.3s.8.8.6 1.4l-2.2 8.2h6.5c.5 0 1 .3 1.2.8.2.4.2.8-.1 1.1l-2.5 3-.9-.8 2.4-2.9s-.1-.1-.2-.1h-8l2.6-9.7-10.5 12.5v.1l.1.1h8.2l-3 10.3 6.2-7.4.9.8-6.4 7.7c-.2.2-.5.3-.9.3z"/></g></svg>
