<svg version="1.1" id="Layer_1" xmlns="http://www.w3.org/2000/svg" x="0" y="0" viewBox="0 0 88 88" xml:space="preserve"><style>.st1{fill:#005a9e}</style>
    <path d="M14.5 30.2s-1.5 1.1-2.9 2.6c-1.7 1.8-3.4 4.7-3.6 8.4-.4 7.3 2 9 4 11.5 0 0 2.6 3.1 5.5 5.6s15.8 13 24.3 17.1c8.5 4.1 13.7 4.8 18.8 4.8 5.6 0 10.6-2 13.7-6.8 2.9-4.5 5.7-11.1 5.9-31.7.1-17.6-3.1-23.3-5.8-27.7-2.8-4.5-10.5-9.3-27.1-3.2-16.2 5.9-32.8 19.4-32.8 19.4z"
          fill="#c6deff"/>
    <path d="M35.9 47.5h-1.3v2.9h6.2s-2.1 2.8-2.5 6H31l1.6 3.1h5.2s-.2 6 1.2 7.7h-7l2.2 3.1h5.7l1.3 2.4h-6.5l-2.4 2.2h10.3c.2 0 5.8 8.1 16.1 8.1s19.1-5.9 22.2-18.2c0 0 2.2-7.9-4.1-17.1l1.6-1.7 1.2 1 1.5-1.1.2-.5-3.3-3.7-2 1.4.8 1.5-1.8 1.3s-5.9-5.7-14.4-6.4v-2.7h1.5v-2.2h-5.6v2.1h1.8v2.9s-9.9.7-15.3 7.8h-6.9"
          fill="#fff"/>
    <path class="st1"
          d="M24.4 19.8c-.7 0-1.4-.2-2.1-.5-2-1.2-2.8-3.8-1.6-5.8s3.8-2.8 5.8-1.6c1 .6 1.7 1.5 2 2.6.3 1.1.2 2.2-.4 3.2-.8 1.3-2.3 2.1-3.7 2.1zm0-7.1c-.3 0-.5 0-.8.1-.7.2-1.3.7-1.7 1.3-.4.6-.5 1.4-.3 2.1.2.7.7 1.3 1.3 1.7.6.4 1.4.5 2.1.3.7-.2 1.3-.7 1.7-1.3.4-.6.5-1.4.3-2.1-.2-.7-.7-1.3-1.3-1.7-.4-.3-.9-.4-1.3-.4zM29.7 26.3c-.3 0-.6-.1-.9-.2-.9-.5-1.2-1.6-.7-2.5.5-.9 1.6-1.2 2.5-.7.9.5 1.2 1.6.7 2.5-.3.5-.9.9-1.6.9zM29 24c-.2.4-.1.9.3 1.1.4.2.9.1 1.1-.3.2-.4.1-.9-.3-1.1-.3-.2-.9-.1-1.1.3zM22.5 51.2c-.5 0-.9-.4-.9-.9V43c0-.5.4-.9.9-.9s.9.4.9.9v7.3c0 .5-.4.9-.9.9z"/>
    <path class="st1"
          d="M18 46.6c0-.5.4-.9.9-.9h7.3c.5 0 .9.4.9.9s-.4.9-.9.9h-7.3c-.5 0-.9-.4-.9-.9zM44.5 15.7c-.3 0-.5-.2-.5-.5v-3.7c0-.3.2-.5.5-.5s.5.2.5.5v3.7c-.1.2-.3.5-.5.5z"/>
    <path class="st1" d="M42.1 13.3c0-.3.2-.5.5-.5h3.7c.3 0 .5.2.5.5s-.2.5-.5.5h-3.7c-.3 0-.5-.2-.5-.5z"/>
    <g><path class="st1" d="M67.7 25.5c-.3 0-.5-.2-.5-.5v-3.7c0-.3.2-.5.5-.5s.5.2.5.5V25c0 .2-.2.5-.5.5z"/>
        <path class="st1" d="M65.4 23.1c0-.3.2-.5.5-.5h3.7c.3 0 .5.2.5.5s-.2.5-.5.5h-3.7c-.3 0-.5-.2-.5-.5z"/></g>
    <g><path class="st1" d="M38.8 57.1h-6.2v-1.2h5.3c.4-1.7 1.1-3.4 1.9-5h-3.1v-1.2h5.1l-.5.9c-1.1 1.9-1.9 3.9-2.3 6l-.2.5zM38.6 67.8h-6.2v-1.2h5.4c-.4-1.8-.7-3.6-.7-5.4v-1.1h-2.3v-1.2h3.6v.6c0 .5-.1 1.1-.1 1.7 0 2 .3 4 .8 5.8l.2.8h-.7zM42.1 73.3h-4.2v-1.2h2.2c-.2-.4-.4-.8-.6-1.1h-5.6v-1.2h6.3l.2.3c.2.5.5 1.1.8 1.6l.9 1.6zM59.4 64.9c-2.1 0-3.7-1.7-3.7-3.7s1.7-3.7 3.7-3.7 3.7 1.7 3.7 3.7-1.6 3.7-3.7 3.7zm0-6.2c-1.4 0-2.5 1.1-2.5 2.5s1.1 2.5 2.5 2.5 2.5-1.1 2.5-2.5-1.1-2.5-2.5-2.5z"/>
        <path transform="rotate(-45.596 66.429 54.132)" class="st1" d="M59.8 53.5h13.3v1.2H59.8z"/>
        <path transform="rotate(-45.596 55.966 64.812)" class="st1" d="M54.3 64.2h3.4v1.2h-3.4z"/>
        <path class="st1"
              d="M59.4 83.5c-6.3 0-12.3-2.7-16.6-7.4l-.6-.7.9-.8.6.7c4 4.5 9.7 7 15.7 7 11.6 0 21.1-9.5 21.1-21.1 0-11.6-9.5-21.1-21.1-21.1-6 0-11.8 2.6-15.8 7.1-.1.1-.2.3-.3.4l-.5.6h-7.1V47h6.6l.2-.2c.1-.1.2-.3.4-.4C47 41.7 53.1 39 59.4 39c12.3 0 22.2 10 22.2 22.2s-9.9 22.3-22.2 22.3z"/>
        <path class="st1"
              d="M77.6 59.5C76.8 50 69 42.8 59.5 42.8c-4.8 0-9.4 1.9-12.8 5.3l-.2.2h-4.1v-1.2H46c3.6-3.6 8.4-5.5 13.5-5.5 4.9 0 9.5 1.8 13.1 5.2 3.6 3.3 5.8 7.8 6.2 12.7h-1.2zM78.8 62.7l-1.2-.1c0-.5.1-1 .1-1.4h1.2c0 .5 0 1-.1 1.5zM59.5 80.9c-4.9 0-9.6-1.9-13.2-5.3H32.6v-1.2h14.1l.2.2c3.4 3.3 7.9 5.1 12.6 5.1 9 0 16.8-6.8 18.1-15.8l1.2.2c-1.5 9.5-9.7 16.8-19.3 16.8zM36.1 55.9h5.6v1.2h-5.6zM35.5 66.6h5.6v1.2h-5.6z"/>
        <path class="st1" d="M39.7 72.2h5.6v1.2h-5.6zM61 39.6h-1.1v-2.3H59v2.3h-1.2v-3.5H61z"/>
        <path class="st1"
              d="M61.9 37.3H57c-.5 0-1-.4-1-1v-1.5c0-.5.4-1 1-1h4.9c.5 0 1 .4 1 1v1.5c-.1.5-.5 1-1 1zm-4.7-1.2h4.5v-1.2h-4.5v1.2zM76.5 48.3l-.8-.9 1.8-1.5-.6-.7-1.7 1.5-.8-.9 2.6-2.2 2.1 2.4z"/>
        <path class="st1"
              d="M79.5 47.7c-.3 0-.5-.1-.7-.3l-3.2-3.7c-.4-.4-.3-1 .1-1.4l1.2-1c.2-.2.5-.3.7-.2.3 0 .5.1.7.3l3.2 3.7c.2.2.3.5.2.7 0 .3-.1.5-.3.7l-1.2 1c-.2.1-.5.2-.7.2zm.2-1.1zm-3.1-3.5l3 3.4.9-.8-3-3.4-.9.8zM34.2 49.7h1.1v1.2h-1.1zM35.2 72.2h1.4v1.2h-1.4z"/></g></svg>
