<?xml version="1.0" encoding="UTF-8" standalone="no"?>
<!DOCTYPE svg PUBLIC "-//W3C//DTD SVG 1.1//EN" "http://www.w3.org/Graphics/SVG/1.1/DTD/svg11.dtd">
<svg version="1.1" xmlns="http://www.w3.org/2000/svg" xmlns:xlink="http://www.w3.org/1999/xlink" preserveAspectRatio="xMidYMid meet" viewBox="0 0 640 640" width="640" height="640"><defs><path d="M316.69 568.45C99.82 481.22 111.02 224.33 115.02 173.92C115.82 165.12 122.22 158.71 131.03 157.11C139.03 156.31 146.23 154.71 154.24 153.11C154.56 154.63 157.12 166.8 157.44 168.32C149.43 169.92 141.43 171.52 133.43 172.32C131.83 172.32 131.03 173.92 131.03 174.72C127.03 222.73 116.62 467.61 320.69 553.24C324.69 551.64 333.49 548.44 341.5 543.64C523.15 446.01 513.55 219.53 509.55 175.52C509.55 173.92 507.95 173.12 507.15 173.12C428.72 164.32 353.5 120.3 324.69 101.9C320.69 99.49 315.89 99.49 311.89 102.7C296.68 114.7 263.07 136.31 212.65 153.91C212.17 152.47 208.33 140.95 207.85 139.51C255.87 122.7 287.88 101.9 303.08 90.69C311.89 84.29 324.69 83.49 333.49 89.89C361.5 107.5 434.33 149.91 509.55 158.71C518.35 159.51 525.56 166.72 526.36 175.52C530.36 221.93 539.96 456.41 349.5 558.84C336.69 566.05 324.69 570.05 323.89 570.85C323.62 570.79 322.29 570.53 319.89 570.05C317.97 569.09 316.9 568.55 316.69 568.45Z" id="fI5T4sFn1"></path><path d="M167.84 149.91C173.44 148.31 179.84 146.71 185.45 145.11C185.71 145 187.05 144.47 189.45 143.51L193.45 158.71C191.53 159.67 190.46 160.21 190.25 160.31C183.84 161.91 178.24 163.52 171.84 165.12C171.04 162.07 168.24 151.43 167.84 149.91Z" id="hkSoWX1jP"></path><path d="M316.69 642.07C195.05 593.25 114.22 498.02 75.01 360.38C44.6 253.14 51 152.31 53.4 123.5C54.2 114.7 60.6 108.3 69.41 106.7C195.05 89.89 272.67 37.87 300.68 16.27C309.49 9.07 322.29 9.07 331.89 14.67C360.7 33.87 463.94 96.29 569.57 107.5C578.37 108.3 585.57 115.5 586.37 124.3C591.98 181.92 606.38 474.02 384.71 611.66C383.91 610.3 377.51 599.42 376.71 598.06C591.18 466.01 575.97 181.12 571.17 125.9C571.17 124.3 569.57 123.5 568.77 123.5C462.33 112.3 361.5 53.08 323.09 28.27C319.09 25.87 313.49 25.87 310.29 29.07C281.48 50.68 201.45 104.3 72.61 122.7C71.01 122.7 70.21 124.3 70.21 125.1C64.61 189.12 48.6 513.23 320.69 626.06C327.09 622.86 335.09 619.66 336.69 618.86C337.33 620.3 342.46 631.83 343.1 633.27C340.7 634.07 325.49 641.27 323.89 642.07C323.62 642.18 322.29 642.71 319.89 643.67C317.97 642.71 316.9 642.18 316.69 642.07Z" id="alyKREk3F"></path><path d="M350.77 612.92C355.75 610.43 360.74 607.93 364.9 605.44C365.73 606.85 372.37 618.16 373.21 619.57C369.05 621.23 363.23 624.56 358.25 627.05C356.75 624.22 351.52 614.33 350.77 612.92Z" id="g1YPuKZFg"></path><path d="M320 367.47L272.4 415.07L229.05 371.72L276.65 324.12L229.05 276.52L272.4 233.17L320 280.77L367.6 233.17L410.95 276.52L363.35 324.12L410.95 371.72L367.6 415.07L320 367.47ZM272.4 391.27L320 343.67L367.6 391.27L387.15 371.72L339.55 324.12L387.15 276.52L367.6 256.97L320 304.57L272.4 256.97L252.85 276.52L300.45 324.12L252.85 371.72L272.4 391.27Z" id="amhDZsARA"></path></defs><g><g><g><use xlink:href="#fI5T4sFn1" opacity="1" fill="#f96555" fill-opacity="1"></use><g><use xlink:href="#fI5T4sFn1" opacity="1" fill-opacity="0" stroke="#000000" stroke-width="1" stroke-opacity="0"></use></g></g><g><use xlink:href="#hkSoWX1jP" opacity="1" fill="#f96555" fill-opacity="1"></use><g><use xlink:href="#hkSoWX1jP" opacity="1" fill-opacity="0" stroke="#000000" stroke-width="1" stroke-opacity="0"></use></g></g><g><use xlink:href="#alyKREk3F" opacity="1" fill="#f96555" fill-opacity="1"></use><g><use xlink:href="#alyKREk3F" opacity="1" fill-opacity="0" stroke="#000000" stroke-width="1" stroke-opacity="0"></use></g></g><g><use xlink:href="#g1YPuKZFg" opacity="1" fill="#f96555" fill-opacity="1"></use><g><use xlink:href="#g1YPuKZFg" opacity="1" fill-opacity="0" stroke="#000000" stroke-width="1" stroke-opacity="0"></use></g></g><g><use xlink:href="#amhDZsARA" opacity="1" fill="#f96555" fill-opacity="1"></use><g><use xlink:href="#amhDZsARA" opacity="1" fill-opacity="0" stroke="#000000" stroke-width="1" stroke-opacity="0"></use></g></g></g></g></svg>
