<svg xmlns="http://www.w3.org/2000/svg" viewBox="0 0 74 74"><g fill="none"><path d="M7.4 23.2s-1.5 1.1-2.9 2.6c-1.7 1.8-3.4 4.7-3.6 8.4-.4 7.3 2 9 4 11.5 0 0 2.6 3.1 5.5 5.6 2.9 2.5 15.8 13 24.3 17.1 8.5 4.1 13.7 4.8 18.8 4.8 5.6 0 10.6-2 13.7-6.8 2.9-4.5 5.7-11.1 5.9-31.7.1-17.6-3.1-23.3-5.8-27.7-2.8-4.5-10.5-9.3-27.1-3.2C24 9.7 7.4 23.2 7.4 23.2z" fill="#C6DEFF"/><path d="M54.8 17.9c-.2-1-1.1-1.8-2.1-1.8-1.1 0-1.9.8-2.1 1.8-3.2.5-5.6 2.5-5.6 6.6 0 5 1.6 5.4 1.6 5.4h12s1.6-.4 1.6-5.4c.2-4.1-2.1-6-5.4-6.6zM63.9 41l-7.6-4.4h-7.2L41.5 41c-.8.4-1.2 1.3-1.2 2.1v2.7h25v-2.7c-.2-.8-.6-1.6-1.4-2.1z" fill="#005A9E"/><path d="M64.2 43.5v2.3H41.3v-2.3c0-.6.3-1.2.9-1.6l4.4-2.5L49 38c.1 0 .1-.1.1-.2V32l3.7 1.4 3.7-1.4v5.8c0 .1.1.2.1.2l6.7 3.9c.5.4.9 1 .9 1.6z" fill="#FFF"/><path d="M63.4 42L59 39.4s-4.5 3.8-6.2 4.6c-1.7-.8-6.2-4.6-6.2-4.6L42.1 42c-.6.3-.9.9-.9 1.6v2.3h23.2v-2.3c-.1-.7-.4-1.3-1-1.6z" fill="#005A9E"/><path d="M52.7 22s-5.5-.2-5.5 3.8c0 0 0 4.5.5 6 .4 1.3 1.3 3.6 3.5 4.5.9.4 2 .4 3 0 2.3-1 3.1-3.3 3.5-4.5.5-1.5.5-6 .5-6 0-4-5.5-3.8-5.5-3.8z" fill="#FFF"/><path d="M47.5 27.6l-.5.1c-.2 0-.4 0-.5.2-.1.5 0 1.7.3 2.4.2.5.5.7 1 .7l-.3-3.4zm10.5 0l.5.1c.2 0 .4 0 .5.2.1.5 0 1.7-.3 2.4-.2.5-.5.7-1 .7l.3-3.4z" fill="#FFF"/><path d="M46.9 25.6s3 1.2 7.4-2.3c0 0 3.2 0 4.3 2.4V23s0-2.4-5.8-2.4-5.8 2.6-5.8 2.6v2.4h-.1z" fill="#005A9E"/><path d="M48.3 40.1L40.7 37v-3.6l-3.9 1.3-3.9-1.3V37l-7.6 3.1c-1.2.5-1.9 1.6-1.9 2.9v2.9h27V43c-.2-1.3-1-2.4-2.1-2.9z" fill="#FFF"/><path d="M39.3 17.2c-1.7-.6-3.5-.6-5.2 0-4.1 1.4-4 5.2-3.8 6.9.2 1.9.4 2.5.4 2.5h12s.2-.6.4-2.5c.2-1.7.3-5.4-3.8-6.9z" fill="#005A9E"/><path d="M42.6 26.4v.2l-.4 3.4-.2 2.1c-.1.8-.6 1.3-1.2 1.8l-.1.1c-.9.8-2.3 1.7-3.9 1.6-1.6.1-3-.8-3.9-1.6l-.1-.1c-.6-.5-1.1-1-1.2-1.8l-.3-2.1-.4-3.5v-.2c-.4-3.7.7-4.4.7-4.4 1.1-1.5 5.2-1.2 5.2-1.2.3 0 4.1-.2 5.1 1.2 0 .1 1.1.8.7 4.5z" fill="#FFF"/><path d="M31.4 26.4s-.8-.4-.9.4c-.1.8-.4 2.8 1.1 3.3l-.2-3.7zM42.2 30c-.1.1-.2.1-.3.2l.2-3.7s.3-.2.5-.1c.2 0 .3.2.3.5.1.8.3 2.5-.7 3.1z" fill="#FFF"/><path d="M41.5 22.4c.1.6-.1 1.4-.1 1.4s-.2 1.1 0 1.8c.2.8 1.3.7 1.3.7V23c-.5-4.1-6-3.6-6-3.6-7.1 0-6 5.5-6 5.5l-.1 1.4c1.1.2 1.4-.6 1.4-.6-.1-2 .7-2.4.7-2.4 1.1-1.3 3.1-1.2 3.1-1.2-.3.4-1.6.9-1.6.9 2 .1 4.6-1 4.6-1-1.2 1.1-3.4 1.4-3.4 1.4 4.4.3 6-1 6-1s.1-.2.1 0zm6.9 17.7l-7.7-3.2-4 4.8-4-4.8-7.7 3.2c-1.2.5-1.9 1.6-1.9 2.9v3h27.2v-3c.1-1.3-.7-2.4-1.9-2.9z" fill="#005A9E"/><path d="M29.9 34.3c-.5-9.6-1.5-14.1-4.5-16.4-1.2-.9-2.7-1.4-4.1-1.1-1.4-.3-2.9.2-4.1 1.1-3 2.3-4 6.8-4.5 16.4l-.5 11.6h18l-.3-11.6z" fill="#005A9E"/><path d="M26.8 38.5c-.5.8-2 2.8-4.8 2.8l-.6 2.4-.6-2.4c-2.8 0-4.3-1.9-4.8-2.8.9-.3 1.5-.6 1.5-.6v-5.4h7.7v5.4s.6.2 1.6.6z" fill="#FFF"/><path d="M32.1 40.4c-1.3-.5-3.7-1.4-5.3-2-.5.8-2 2.8-4.8 2.8l-.6 2.4-.6-2.4c-2.8 0-4.3-1.9-4.8-2.8-1.6.6-4 1.5-5.3 2-2 .7-2.1 3-2.1 3v2.5h25.7v-2.5c-.1.1-.3-2.3-2.2-3z" fill="#005A9E"/><path d="M19.7 45.4h-10v-1.8s.1-1.7 1.6-2.3c.9-.3 3.2-1 4.4-1.4.4.6 1.8 2.3 4.1 2.1l.9 3.5h-1v-.1zm3.3 0h10v-1.8s-.1-1.7-1.6-2.3c-.9-.3-3.2-1-4.4-1.4-.4.6-1.8 2.3-4.1 2.1l-.9 3.4h1zm-1.7-24.7s-5.3-.2-5.3 3.8c0 0 0 4.5.5 6 .4 1.3 1.2 3.5 3.4 4.5.9.4 2 .4 2.9 0 2.2-1 3-3.2 3.4-4.5.5-1.5.5-6 .5-6 0-4-5.4-3.8-5.4-3.8z" fill="#FFF"/><path d="M16.1 26l-.5.1c-.2.1-.4.3-.4.5 0 .9.2 3.2 1.1 3.2l-.2-3.8zm10.5 0l.5.1c.2.1.4.3.4.5 0 .9-.2 3.2-1.1 3.2l.2-3.8z" fill="#FFF"/><path d="M24.5 21.1s.3 1.5-3.2 2c-3.5.6-4.6-.3-5.4 1.5 0 0-.4-3.7 3-4.6 3.4-1 5.6 1.1 5.6 1.1zm.2 51.8c-.3 0-.6 0-.9-.1-2.3-.5-3.7-2.8-3.2-5.1.2-1.1.9-2.1 1.9-2.7 1-.6 2.1-.8 3.2-.6 1.1.2 2.1.9 2.7 1.9.6 1 .8 2.1.6 3.2-.2 1.1-.9 2.1-1.9 2.7-.9.5-1.6.7-2.4.7zm-.1-7c-.5 0-1 .1-1.5.4-.6.4-1.1 1-1.2 1.7-.3 1.5.6 3 2.1 3.3.7.2 1.5 0 2.1-.4.6-.4 1.1-1 1.2-1.7.2-.7 0-1.5-.4-2.1-.4-.6-1-1.1-1.7-1.2h-.6zm7-3.2h-.4c-.5-.1-.9-.4-1.1-.8-.2-.4-.3-.9-.2-1.4.1-.5.4-.9.8-1.1.4-.3.9-.3 1.4-.2.5.1.9.4 1.1.8.3.4.3.9.2 1.4-.1.5-.4.9-.8 1.1-.3.1-.6.2-1 .2zm0-2.6c-.2 0-.3 0-.4.1-.2.1-.3.3-.4.5 0 .2 0 .4.1.6.1.2.3.3.5.4.2 0 .4 0 .6-.1.2-.1.3-.3.4-.5 0-.2 0-.4-.1-.6-.1-.2-.3-.3-.5-.4h-.2zm28.8 4c-.5 0-.9-.4-.9-.9v-7.3c0-.5.4-.9.9-.9s.9.4.9.9v7.3c0 .5-.4.9-.9.9z" fill="#005A9E"/><path d="M55.9 59.6c0-.5.4-.9.9-.9h7.3c.5 0 .9.4.9.9s-.4.9-.9.9h-7.3c-.5 0-.9-.4-.9-.9zm-28-51c-.3 0-.5-.2-.5-.5V4.4c0-.3.2-.5.5-.5s.5.2.5.5v3.7c0 .3-.2.5-.5.5z" fill="#005A9E"/><path d="M25.6 6.3c0-.3.2-.5.5-.5h3.7c.3 0 .5.2.5.5s-.2.5-.5.5h-3.7c-.3-.1-.5-.3-.5-.5zM65 13.8c-.3 0-.5-.2-.5-.5V9.6c0-.3.2-.5.5-.5s.5.2.5.5v3.7c-.1.3-.3.5-.5.5z" fill="#005A9E"/><path d="M62.6 11.4c0-.3.2-.5.5-.5h3.7c.3 0 .5.2.5.5s-.2.5-.5.5h-3.7c-.3 0-.5-.2-.5-.5z" fill="#005A9E"/></g></svg>
