<svg version="1.1" id="Layer_1" xmlns="http://www.w3.org/2000/svg" x="0" y="0" viewBox="0 0 88 88" xml:space="preserve">
    <path class="st0"
          d="M43.8 72.2l-.4-.2C16.3 61.1 17.7 29 18.2 22.7c.1-1.1.9-1.9 2-2.1 1-.1 1.9-.3 2.9-.5l.4 1.9c-1 .2-2 .4-3 .5-.2 0-.3.2-.3.3-.5 6-1.8 36.6 23.7 47.3.5-.2 1.6-.6 2.6-1.2 22.7-12.2 21.5-40.5 21-46 0-.2-.2-.3-.3-.3-9.8-1.1-19.2-6.6-22.8-8.9-.5-.3-1.1-.3-1.6.1-1.9 1.5-6.1 4.2-12.4 6.4l-.6-1.8c6-2.1 10-4.7 11.9-6.1 1.1-.8 2.7-.9 3.8-.1 3.5 2.2 12.6 7.5 22 8.6 1.1.1 2 1 2.1 2.1.5 5.8 1.7 35.1-22.1 47.9-1.6.9-3.1 1.4-3.2 1.5l-.5-.1z"/>
    <path class="st0" d="M25.3 21.6l-.5-1.9c.7-.2 1.5-.4 2.2-.6l.5-.2.5 1.9-.4.2c-.8.2-1.5.4-2.3.6z"/>
    <path class="st0"
          d="M43.8 81.4l-.4-.2c-15.2-6.1-25.3-18-30.2-35.2-3.8-13.4-3-26-2.7-29.6.1-1.1.9-1.9 2-2.1C28.2 12.2 37.9 5.7 41.4 3c1.1-.9 2.7-.9 3.9-.2C48.9 5.2 61.8 13 75 14.4c1.1.1 2 1 2.1 2.1.7 7.2 2.5 43.7-25.2 60.9l-1-1.7c26.8-16.5 24.9-52.1 24.3-59 0-.2-.2-.3-.3-.3C61.6 15 49 7.6 44.2 4.5c-.5-.3-1.2-.3-1.6.1C39 7.3 29 14 12.9 16.3c-.2 0-.3.2-.3.3-.7 8-2.7 48.5 31.3 62.6.8-.4 1.8-.8 2-.9l.8 1.8c-.3.1-2.2 1-2.4 1.1l-.5.2z"/>
    <path class="st0"
          d="M48.4 79.3l-.9-1.7c.6-.3 1.2-.6 1.7-.9l1 1.7c-.5.2-1.2.6-1.8.9zM40.7 52.5c-.8 0-1.7-.3-2.3-.9l-7.5-7.3c-1.6-1.6-1.6-4.1 0-5.7 1.6-1.6 4.1-1.6 5.7 0l3.9 3.8c.1.1.3.1.4 0l10.9-10.9c.8-.8 1.8-1.2 2.9-1.2 1.1 0 2.1.4 2.9 1.2 1.6 1.6 1.6 4.1 0 5.7L45.7 48.9l-2.6 2.6c-.6.6-1.5 1-2.4 1zm-7-13.1c-.5 0-1.1.2-1.4.6-.4.4-.6.9-.6 1.4s.2 1.1.6 1.4l7.5 7.3c.5.5 1.4.5 2 0l3.3-3.4 11-11c.4-.4.6-.9.6-1.5s-.2-1.1-.6-1.5c-.4-.4-.9-.6-1.5-.6s-1.1.2-1.5.6l-10.9 11c-.9.9-2.3.9-3.2 0L35.1 40c-.4-.4-.9-.6-1.4-.6zM17.3 76h-.2c-.5-.1-.9-.4-1.1-.8l-6.7-13 .3-.5c1.7-2.8 7.6-5.8 8.3-6.1l.9 1.8c-1.6.8-5.6 3.1-7.1 5l5.9 11.4c1.8-1.7 5.7-4.8 9.9-5.2l.2 1.9c-4.1.4-8.1 4-9.2 5.1-.4.2-.8.4-1.2.4z"/>
    <path class="st0"
          d="M11.1 85.2c-.3 0-.6-.1-.8-.2-.5-.3-.8-.8-.8-1.4V77l-6-3.7c-.5-.3-.8-.8-.8-1.4s.3-1.1.7-1.4l8.3-5.6 1.1 1.6-7.9 5.4 6.5 4V83l11.1-6.6-5.2-.5.2-1.9 6.7.6c.6.1 1.1.6 1.2 1.2.1.6-.2 1.2-.7 1.6L12 84.9c-.3.2-.6.3-.9.3zm-.1-1.9z"/>
    <path transform="rotate(-32.478 23.088 73.73)" class="st0" d="M22.1 71.2h2v5h-2z"/>
    <path class="st0"
          d="M70.3 76.1c-.4 0-.8-.2-1-.4-1.1-1.1-5.1-4.7-9.2-5.1l.2-1.9c4.2.4 8.1 3.5 9.9 5.2l1.1-2.2 1.7.9-1.4 2.8c-.2.4-.6.7-1.1.8 0-.1-.1-.1-.2-.1z"/>
    <path transform="rotate(-62.807 73.467 69.58)" class="st0" d="M72.6 68.6h1.7v2h-1.7z"/>
    <path class="st0" d="M75.5 67.8l-1.7-.9 2.3-4.4c-1.5-1.9-5.6-4.2-7.1-5l.9-1.8c.7.3 6.6 3.3 8.3 6.1l.3.5-3 5.5z"/>
    <path class="st0"
          d="M76.5 85.3c-.3 0-.6-.1-.9-.2l-12.8-7.6c-.5-.3-.8-.9-.7-1.6.1-.6.6-1.1 1.2-1.2h.1l6.7-.6.2 1.9-5.2.5 11.1 6.6V76l6.5-4-7.9-5.4 1.1-1.6 8.3 5.6c.5.3.7.8.7 1.4 0 .6-.3 1.1-.8 1.4l-6 3.7v6.6c0 .6-.3 1.1-.8 1.4-.2.2-.5.2-.8.2zm.2-1.9z"/>
    <path transform="rotate(-57.52 64.533 73.87)" class="st0" d="M62 72.9h5v2h-5z"/></svg>
