<svg width="108" height="112" xmlns="http://www.w3.org/2000/svg"><path d="M3.115 66.729A26.808 26.808 0 004.509 71.4c2.1 5.46 9.08 10.919 19.551 16.378-7.944-6.09-16.602-13.706-20.945-21.05zm92.654 32.955c2.967-1.742 5.23-4.135 6.957-7.4 4.112-7.971 4.427-20.914.3-40.115.058 2.326.076 4.767.051 7.331-.19 19.983-3 32.493-7.308 40.184zM83.827 6.876c-.263-.24-.526-.47-.792-.693C77.41 1.517 71.784.933 64.048 2.8c-9.622 2.42-19.054 8.45-30.016 18.43a143.52 143.52 0 013.294-1.98c12.423-7.233 25.668-13.3 38.443-13.3 2.643 0 5.38.19 8.058.926zm-55.08 17.742c.283-.276.564-.55.843-.818C40.022 13.767 51.273 4.783 63.697 1.633 70.744-.153 78.809-.7 86.566 7.845c7.72 3.408 14.435 12.641 16.118 36.862.17.682.341 1.374.51 2.076 8.823 36.561 2.087 49.652-8.522 54.709-6.255 9.51-15.169 10.32-23.826 9.341-15.47-1.75-23.91-7-33.637-13.65-2.16-1.476-5.084-3.471-8.346-5.832C17.811 86.2 6.444 79.365 3.453 71.75c-1.144-2.915-1.684-5.553-1.82-7.908-.617-1.433-1.039-2.846-1.227-4.225C-1.469 45.85 6.97 40.25 8.611 38.967c0 0 9.891-7.58 20.137-14.349zm53.468 50.049v-7h4.688v-7h-4.688v-21h-9.61L57.601 61.6v6.067h17.58v7h7.033zm-7.032-14H66.04l9.142-14.35v14.35zm-23.441 14V68.25h-13.83c9.025-6.533 13.83-11.667 13.83-17.5 0-6.883-5.86-10.967-13.244-10.967-4.806-.116-9.963 1.634-13.361 5.484l4.219 4.9c2.344-2.45 5.391-3.967 9.376-3.967 2.813 0 5.626 1.517 5.626 4.55 0 4.2-4.102 7.817-18.284 18.2v5.717h25.668z" fill="#000" fill-rule="nonzero"/></svg>
