<svg xmlns="http://www.w3.org/2000/svg" viewBox="0 0 63.46 35.296"><defs/><path fill="#00588E" d="M0 0h17.647v35.296H0z"/><path fill="#FFF" d="M9.131 27.279h-.307v-.851h.307v.851zm1.383-3.751h-.307v-.851h.307v.851zm-5.681-1.467c-.023 0-.182.001-.182.033l.182.035c.246.042.342.166.514.166.156 0 .317-.106.254-.332l-.038-.004c-.024.101-.147.159-.279.159-.162-.001-.196-.057-.451-.057zm-1.691.85c.027.038.316.413-.128.557l.004.038c.328.137.487-.115.487-.115.166.378-.089.587-.089.587.036.068.193.182.431.235a.562.562 0 00.27-.283s.064.165.005.323c.671.061.908-.475 1.424-.378l.022-.023c0-.33-.203-.935-.842-1.057-.638-.123-.466-.385-.466-.385a.688.688 0 01.425.104c.049-.08-.021-.168-.021-.168.027-.031.04-.14.04-.14-.303-.001-.382-.065-.382-.065-.046-.178.078-.431.528-.16.113-.099.104-.252.104-.252.034-.016.055-.069.055-.092 0-.075-.359-.275-.452-.3-.022-.109-.162-.266-.585-.209-.2.024-.344-.028-.277-.144l-.042-.006c-.046.046-.11.176.065.265a.377.377 0 01.207.321c.003.041-.046.045-.057.004-.089-.328-.537-.4-.803-.225.015.176.205.292.308.292.059 0 .142-.06.142-.142l.032-.004c.044.118-.128.358-.385.211-.261.261-.157.584-.131.703.047.214-.058.42-.25.324l-.019.014c-.001.134.174.286.38.17zm1.44-1.318c-.122.137-.321.105-.368-.119.25-.013.358.012.368.119zm7.781.524c-.131 0-.255-.059-.278-.159l-.038.003c-.061.226.098.333.254.333.172 0 .269-.124.514-.166.109-.018.182-.001.182-.034l-.182-.033c-.256 0-.29.056-.452.056zm2.523.624l-.019-.014c-.192.096-.297-.111-.249-.323.026-.119.129-.441-.131-.703-.257.146-.43-.094-.385-.211l.032.004c0 .082.083.141.142.141.104 0 .293-.117.308-.292-.266-.175-.714-.104-.804.224-.012.041-.061.038-.058-.004.002-.028.013-.222.207-.321.175-.089.111-.218.065-.265l-.043.004c.067.117-.077.17-.277.143-.423-.057-.561.101-.585.209-.093.024-.452.225-.452.3 0 .023.021.076.055.091 0 0-.009.153.104.253.45-.272.574-.017.528.163 0 0-.079.065-.383.065 0 0 .014.109.039.141 0 0-.069.087-.019.168 0 0 .155-.118.424-.104 0 0 .171.262-.467.384-.639.123-.841.727-.841 1.057l.021.023c.517-.096.754.44 1.424.378-.058-.158.006-.323.006-.323.053.143.18.235.27.283.238-.053.395-.167.43-.235 0 0-.253-.21-.088-.587 0 0 .159.252.487.116l.003-.039c-.445-.143-.155-.519-.128-.557.209.117.384-.035.384-.169zm-1.452-1.267c-.048.224-.247.256-.368.119.009-.107.118-.132.368-.119zm-4.728-3.767c0 .056.024.106.044.135.039.056.033.087.014.105-.019.019-.05.025-.106-.014a.243.243 0 00-.133-.043c-.096 0-.144.064-.144.118 0 .054.048.118.144.118a.235.235 0 00.133-.044c.057-.039.088-.033.106-.014.018.019-.009.213-.031.365-.16.034-.237.163-.237.236 0 .193.206.304.327.368.12-.064.327-.176.327-.368 0-.075-.077-.203-.237-.236-.022-.153-.05-.347-.031-.365.018-.018.049-.025.105.014a.246.246 0 00.133.044c.097 0 .145-.064.145-.118 0-.053-.048-.118-.145-.118a.246.246 0 00-.133.043c-.056.039-.088.033-.105.014-.019-.018-.026-.049.014-.105a.25.25 0 00.043-.135c0-.096-.064-.145-.118-.145s-.115.048-.115.145zm.117 1.432a.235.235 0 100 .47.235.235 0 000-.47zm0 2.26c.941 0 1.472.18 1.472.18.005-.475.003-.741.274-.701-.148-.4.493-.557.493-1.077 0-.342-.243-.381-.314-.381-.213 0-.18.138-.361.138l-.046.011c0 .06.051.162.135.162.111 0 .114-.112.195-.112.037 0 .088.029.088.143 0 .221-.145.467-.317.657a.194.194 0 00-.157-.089c-.101 0-.19.106-.19.236l.026.124a.328.328 0 01-.146.049c-.078 0-.194-.031-.194-.2 0-.378.505-.709.505-1.186a.442.442 0 00-.471-.456c-.342 0-.277.312-.574.312l-.024.016c0 .019.051.192.204.192.165 0 .21-.283.355-.283.054 0 .135.033.135.223 0 .149-.074.391-.18.622a.212.212 0 00-.149-.066c-.127 0-.218.123-.218.27 0 .092.037.181.099.241-.074.095-.15.173-.253.173-.205 0-.295-.116-.295-.242 0-.136.249-.186.249-.4 0-.144-.094-.226-.185-.226-.097 0-.147.065-.157.065-.01 0-.06-.065-.158-.065-.091 0-.185.082-.185.226 0 .214.249.263.249.4 0 .126-.091.242-.295.242-.104 0-.18-.078-.254-.173a.331.331 0 00.099-.241c0-.146-.091-.27-.218-.27a.213.213 0 00-.149.066c-.106-.231-.18-.472-.18-.622 0-.192.081-.223.135-.223.145 0 .191.283.354.283.153 0 .204-.172.204-.192l-.023-.015c-.296 0-.232-.312-.574-.312a.442.442 0 00-.471.456c0 .478.505.81.505 1.186 0 .17-.117.2-.194.2a.337.337 0 01-.146-.049l.026-.124c0-.131-.089-.236-.19-.236a.189.189 0 00-.156.089c-.171-.19-.317-.436-.317-.657 0-.114.053-.143.088-.143.083 0 .085.112.196.112.084 0 .135-.103.135-.162l-.046-.011c-.181 0-.147-.138-.361-.138-.072 0-.314.039-.314.381 0 .52.641.678.493 1.077.273-.039.27.225.274.701.003-.002.534-.181 1.474-.181zm-1.724.702c-.256.056-.44.109-.522.135.004-.113.047-.218.148-.241l.004-.029c-.228-.151-.351.14-.353.149-.081-.007-.203.018-.203.128 0 .327-.749.508-.922.535.305.118.432.503.432.503.221-.221.482-.417.538-.417.059 0 .081.074.086.118l.024.008c.116-.173.06-.212.051-.263-.008-.04.004-.193.173-.174v2.182l-.088.017c-.039.007-.358-.264-.724-.517-.365-.252-.561-.101-.978.123-.545.296-1.096.028-1.096.028-.47.336-.631 1.306-.631 1.306-.093.04-.248.083-.396.083-.358 0-.425-.218-.425-.347 0-.554.693-.792.693-1.338 0-.132-.061-.671-.728-.671l-.596-.001c-.249 0-.312-.18-.347-.248l-.028.01-.029.254c0 .221.13.354.373.354a.585.585 0 00.248-.051l.024.021c-.106.123-.114.353-.071.41l.026-.001a.601.601 0 01.574-.456c.362 0 .36.308.36.382 0 .444-.78.77-.78 1.381 0 .62.654.753 1.033.655-.022.619-.732.831-.754.387l-.028.003c-.091.22-.054.411.221.473l-.008.026c-.274.175-.124.859-.111 1.06.02.29-.268.255-.292.247l-.005.024c.205.25.457.022.457.022.191.06.072.222-.055.307l.004.028c.028.002.324.027.377-.208.131.156.324.099.363.079.057-.029.333-.129.361.181l.023-.004c.209-.263-.014-.425-.14-.444a.211.211 0 01.328.039l.021-.011c.018-.333-.253-.364-.43-.219-.008-.034-.066-.221.198-.215l.006-.023c-.205-.22-.375-.022-.413.026-.092.108-.321.065-.341.062.072-1.16 1.093-.748 1.234-1.312l.023-.008c.039.137.384.156.449-.114l-.011-.016c-.295.296-.961-.627-.053-1.377.776-.639 1.471-.283 1.734-.073.014.092-.041.123-.076.134l.003.023c.074.028.178.019.226-.05.167.116.024.263-.043.303l.005.026c.153.027.278-.129.285-.219l.026.014v.659c0 .938 1.082 1.068 2.269 1.864 1.187-.795 2.268-.925 2.268-1.864V25.3l.026-.014c.006.091.132.247.285.219l.004-.026c-.066-.04-.21-.187-.043-.303.049.068.153.078.226.05l.003-.023c-.035-.011-.091-.041-.076-.134.264-.211.959-.567 1.734.073.908.75.243 1.672-.053 1.377l-.011.018c.064.271.41.251.449.114l.023.008c.14.562 1.16.152 1.233 1.312-.021.003-.249.046-.341-.063-.039-.048-.208-.246-.415-.028l.006.023c.265-.007.206.181.198.215-.175-.145-.446-.115-.43.219l.022.011a.21.21 0 01.328-.039c-.124.019-.348.181-.14.444l.024.004c.028-.311.304-.21.361-.181.04.021.233.078.363-.079.053.235.348.21.377.208l.003-.028c-.127-.085-.246-.248-.054-.307 0 0 .252.228.456-.022l-.005-.024c-.024.009-.312.043-.292-.247.013-.201.162-.885-.113-1.059l-.008-.026c.276-.062.312-.254.222-.473l-.028-.003c-.022.444-.732.233-.754-.387.378.098 1.033-.035 1.033-.655 0-.611-.78-.936-.78-1.381 0-.074-.003-.382.359-.382.296 0 .515.221.574.456l.026.001c.043-.056.035-.287-.07-.41l.023-.021a.61.61 0 00.248.051c.243 0 .373-.133.373-.354l-.025-.256-.029-.01c-.036.068-.098.248-.347.248l-.596.001c-.666 0-.727.538-.727.671 0 .546.693.783.693 1.338 0 .129-.065.347-.425.347-.147 0-.302-.042-.395-.083 0 0-.16-.97-.631-1.306 0 0-.551.268-1.096-.028-.417-.225-.612-.377-.978-.123-.365.253-.684.524-.724.517l-.088-.017V22.55c.17-.017.181.134.174.174-.01.051-.065.09.051.263l.023-.008c.005-.043.027-.118.087-.118.057 0 .317.195.537.417 0 0 .128-.384.432-.503-.173-.026-.921-.208-.921-.535 0-.109-.123-.135-.204-.128-.004-.01-.126-.3-.354-.149l.004.029c.101.023.144.128.148.241a8.252 8.252 0 00-2.247-.327c-.534 0-1.027.062-1.418.132v.756h-.303v-.696l.002.003m-2.031 7.747c-.081-.033-.135-.085-.135-.192v-.469c-.135-.048-.502-.188-1.237-.188-.61 0-.8.138-.809.186l-.163.895s.247-.225 1.132-.168c1.065.067 2.169.696 2.169.026v-.393c-.836-.001-.957.264-.957.303zm6.554-.304v.393c0 .67 1.104.041 2.169-.026.885-.059 1.132.168 1.132.168l-.162-.895c-.009-.048-.2-.186-.81-.186-.733 0-1.102.141-1.237.188v.469c0 .107-.054.16-.135.192 0-.038-.121-.303-.957-.303zm-2.799-.407c1.715 0 3.457.09 3.686.348l.026-.015v-.91c0-.265-1.797-.419-3.712-.419s-3.712.155-3.712.419v.91l.026.015c.229-.258 1.971-.348 3.686-.348zm-1.53-4.286l-.173-.045-.014.022-.201-.089.18-.001.01-.019-.154-.15.199.073.012-.013-.133-.195.195.131.014-.011-.092-.228.178.169.015-.009-.049-.23.131.191.018-.006.004-.208.083.191.023-.003.066-.161.008.217-.029.006-.036.261c.259-.061.582-.504.829-.504.295 0 .402.345.947.17.138.203.185.379.238.624.211.198.505.132.505-.077 0-.282-.307-.336-.307-.631a.32.32 0 01.343-.32l.44.057c.133 0 .161-.096.176-.136.013-.03.049-.02.045.003l.015.129c0 .186-.271.21-.303.187l-.014.013c.041.033.031.143-.017.215l-.015-.001c-.028-.133-.185-.299-.323-.299-.051 0-.151.029-.151.146 0 .168.335.32.335.667 0 .36-.357.447-.716.357.013.342.522.545.534.3l.015.001c.075.104.041.184-.056.224.089.039.105.22.131.326.039.16.209.071.218.067l.009.01c-.065.168-.236.104-.236.104-.09.064.019.119.1.144l.003.015c-.061.022-.189.062-.25-.046-.046.111-.142.109-.178.109-.065 0-.109.066-.093.156l-.012.008c-.156-.104-.066-.226-.003-.256a.113.113 0 00-.165.074l-.013.001c-.068-.182.081-.235.188-.19-.008-.026-.064-.114-.205-.086l-.007-.01c.023-.056.093-.139.221-.054.065.04.178-.019.189-.024-.228-.454-.672-.074-.771-.43l-.016.005c-.024.076-.218.081-.252-.068l.009-.006c.028.029.089.054.169-.061a.445.445 0 00.061-.248c0-.276-.276-.741-.706-.741-.273 0-.564.106-.781.264l.202.048a.313.313 0 01-.396.274l.031-.234c-.031.011-.111.039-.153.098l-.012-.003c-.037-.132.073-.198.106-.216l-.003-.005a.195.195 0 00-.17.093h-.006c-.012-.02-.029-.088.016-.136zm.601 1.578c-.078.094-.145.004-.248.004-.096 0-.112.08-.114.112l-.008.003c-.108-.148.013-.228.083-.24-.011-.011-.117-.082-.185.016l-.011-.004c-.003-.183.143-.196.238-.116.016-.069-.028-.116-.105-.119l-.007-.01c.033-.036.064-.051.095-.051.103 0 .116.128.182.128.1 0 .242-.135.255-.149-.003-.008-.098-.266-.079-.422l-.007-.004c-.048.027-.17.026-.17-.125l.01-.003c.054.074.141-.01.185-.059.047-.053.299-.419.635-.419.074 0 .17.04.247.094-.117.141-.001.275.085.259l.003.011c-.444.167-.642.234-.642.606 0 .195.066.302.18.277l.005.008a.165.165 0 01-.128.065c-.091 0-.109-.05-.158-.05-.051 0-.217.096-.217.178 0 .031.019.073.078.111l-.002.006c-.038.006-.17.016-.2-.107zm1.169-3.615c-.139-.008-.228.023-.223.067.066.07.157.063.223-.067zm-.512.343a.597.597 0 01.218-.009l-.003.031c-.205.026-.215.12-.344.12-.087 0-.18-.087-.144-.214l.022-.002c.011.056.09.116.251.074zm-2.655 4.535c.136.173.266.01.444.01.087 0 .193.029.213.203h.017c.194-.264-.027-.414-.154-.432.027-.025.217-.142.336.031l.021-.006c0-.335-.251-.358-.434-.214-.033-.129.065-.216.191-.216l.013-.019c-.224-.24-.392.063-.43.111-.09.119-.41-.104-.538-.238 0 0 .283-.297.283-.568l-.002-.048.012-.007.105.027c.065 0 .187-.021.187-.25l-.015-.006c-.034.049-.07.06-.099.06-.228 0-.705-.763-1.268-.763a.94.94 0 00-.566.258c.068.04.081.122.074.183-.011.097-.088.145-.166.167v.019c.285.108.801.304.918.405.14.119.113.347.032.66-.078.3-.245.26-.305.249l-.006.012a.302.302 0 00.239.123c.148 0 .203-.091.279-.091.129 0 .398.184.398.325 0 .079-.062.15-.141.201l.004.012c.057.006.31.027.358-.198zm6.217.193l.004-.011c-.079-.051-.141-.123-.141-.201 0-.141.27-.325.398-.325.076 0 .132.091.279.091a.302.302 0 00.239-.123l-.006-.011c-.061.01-.228.051-.305-.25-.08-.313-.108-.54.032-.661.118-.101.634-.297.918-.405v-.02c-.078-.022-.155-.069-.166-.166-.007-.06.006-.143.074-.183a.938.938 0 00-.566-.258c-.563 0-1.04.763-1.268.763-.028 0-.066-.011-.099-.059l-.015.006c0 .23.122.25.187.25l.105-.027.011.007-.002.048c0 .272.283.567.283.567-.128.134-.449.358-.537.238-.038-.048-.206-.351-.43-.11l.013.019c.126 0 .225.086.191.216-.182-.145-.432-.121-.432.213l.019.006c.119-.171.309-.056.337-.031-.127.019-.348.17-.154.433h.016c.02-.174.126-.204.212-.204.178 0 .308.164.444-.01.046.23.298.209.359.198zM7.56 23.488c-.018.025-.077-.001-.1-.012l-.004.004c.014.032.072.128.156.128.039 0 .094-.023.11-.048 0 0 .331.108.495.153a.562.562 0 00-.112.298c-.132-.081-.661-.365-.661-.365l-.163.224c-.027.037-.158-.059-.131-.096l.124-.171c-.041-.044-.141-.016-.169-.009l-.004-.008c.016-.034.078-.138.234-.091 0-.094-.141-.065-.178-.054l-.002-.006c.039-.041.153-.134.282-.058l.056-.078-.113-.117.071-.098.079.108.611-.836c.014-.021.136-.056.181-.066a.633.633 0 01-.004.193l-.6.843.126.041-.069.098-.15-.069-.065.092zm2.14-.137c0 .077.048.189.149.156l.009.004c-.015.086-.168.163-.237.063-.063.129-.048.251.086.325v.02a.174.174 0 01-.261-.066c-.109.083-.093.258-.027.318 0 0-.303.18-.579.051-.182-.088-.33-.199-.566-.181.033-.33.198-.417.5-.464.243-.039.273-.15.239-.235-.083-.022-.233.054-.233.054-.027-.044.013-.092.013-.092l-.023-.079c.17 0 .198-.038.198-.038.032-.174-.148-.194-.285-.098-.064-.056-.054-.131-.054-.131l-.031-.052c0-.041.201-.155.253-.168.013-.059.087-.14.3-.121.026-.056-.015-.263-.041-.318l.023-.014.198.225s.24-.126.251-.119c.011.006.045.274.045.274l.298.036.001.026c-.061.011-.254.094-.286.146.112.166.06.411.06.478z"/><path d="M21.779 22.691c.213-.05.363-.181.363-.463v-3.076l-.394-.131v-.138c.394-.075.656-.088 1.251-.088.906 0 1.344.331 1.344.925 0 .475-.425.913-.913 1.007v.006c.656 0 1.088.363 1.088.945 0 .681-.638 1.212-1.607 1.212-.444 0-.794-.013-1.132-.081v-.118zm1.995-2.915c0-.4-.275-.644-.819-.644-.088 0-.175.006-.282.019v1.488c.683 0 1.101-.319 1.101-.863zm-.769 2.77c.507 0 .919-.337.919-.813 0-.525-.363-.794-1.05-.794h-.2v1.582c.125.019.212.025.331.025zM26.365 19.789c.675 0 1.082.45 1.082 1.169 0 .119 0 .245-.006.401h-1.844c0 .7.407 1.107.925 1.107.306 0 .644-.106.881-.269.013.031.025.1.025.163 0 .282-.412.544-1.075.544-.713 0-1.294-.557-1.294-1.432-.001-1.089.655-1.683 1.306-1.683zm.581 1.244c0-.613-.262-.906-.631-.906-.344 0-.706.412-.706.906h1.337zM27.947 22.702c.163-.063.332-.188.332-.337v-3.627l-.407-.17v-.138c.282-.081.576-.113.751-.113h.2l-.031.35v3.876l.35.094v.118c-.213.075-.413.106-.726.106-.15 0-.325-.013-.469-.056v-.103zM31.162 21.19v-.17c0-.675-.163-.82-.556-.82-.344 0-.676.144-.938.407a.881.881 0 01-.019-.188c0-.4.294-.631 1.025-.631.632 0 1.007.319 1.007.838 0 .138-.019.45-.025.632l-.019 1.013a.806.806 0 00.25.319 1.417 1.417 0 01-.425.319.841.841 0 01-.287-.307c-.175.169-.513.3-.845.3-.469 0-.794-.295-.794-.694 0-.55.6-1.018 1.626-1.018zm-.6 1.338c.194 0 .444-.076.6-.17v-.875c-.706 0-1.088.295-1.088.632 0 .25.169.413.488.413zM32.389 22.133c.281.263.55.395.881.395.35 0 .532-.17.532-.388 0-.22-.125-.356-.538-.532l-.312-.131c-.363-.156-.562-.419-.562-.775 0-.494.437-.92 1.087-.92.5 0 .701.15.701.388 0 .093-.013.175-.032.263a1.344 1.344 0 00-.713-.238c-.4 0-.587.175-.587.387 0 .225.113.351.487.494l.338.131c.45.175.619.406.619.775 0 .482-.462.92-1.163.92-.55 0-.794-.175-.794-.513 0-.087.019-.186.056-.256zM35.01 21.102l.019-.831h-.344v-.206l.675-.669.206-.025-.025.562h.825l-.044.338h-.8l-.013.788c-.006.263-.006.5-.006.732 0 .507.15.682.381.682a.727.727 0 00.462-.163l.063.025c-.025.369-.245.557-.676.557-.5 0-.744-.263-.744-.87.002-.301.015-.633.021-.92zM36.681 22.702c.169-.063.331-.188.331-.337v-2.114l-.4-.169v-.131a2.97 2.97 0 01.744-.119h.2l-.031.338v2.376l.35.094v.118c-.213.075-.406.106-.725.106-.144 0-.326-.013-.469-.056v-.106zm.262-3.801c0-.195.138-.369.356-.369.175 0 .325.131.325.337 0 .219-.15.388-.35.388-.187 0-.331-.15-.331-.356zM38.382 22.702c.163-.063.331-.188.331-.337v-2.114l-.406-.169v-.138a2.96 2.96 0 01.75-.113h.15v.338c.213-.213.562-.35.925-.35.519 0 .875.331.875.975v1.751l.326.094v.118a1.78 1.78 0 01-.657.106c-.131 0-.282-.013-.406-.056v-.106c.156-.068.225-.188.225-.413v-1.194c0-.612-.256-.845-.625-.845-.256 0-.507.088-.644.195v2.1l.35.094v.118c-.213.075-.413.106-.725.106-.15 0-.326-.013-.469-.056v-.104zM42.354 21.896v-.006a.944.944 0 01-.562-.87c0-.701.562-1.238 1.244-1.238.256 0 .569.106.676.206a.904.904 0 01.819-.162l-.043.413a3.126 3.126 0 00-.669-.069v.007a.903.903 0 01.356.681c0 .725-.594 1.219-1.269 1.219-.138 0-.282-.031-.388-.074-.093.056-.2.188-.2.3 0 .188.156.288.4.288l.875-.006c.525-.006.82.237.82.7 0 .594-.657 1.094-1.525 1.094-.788 0-1.194-.319-1.194-.731 0-.332.256-.601.594-.694v-.007c-.231-.081-.368-.25-.368-.487-.002-.239.196-.483.434-.564zm.613 2.12c.594 0 .988-.294.988-.594 0-.244-.163-.382-.462-.382h-1.007a.569.569 0 00-.319.501c-.001.256.275.475.8.475zm.656-3.139c0-.525-.294-.776-.626-.776-.356 0-.657.338-.657.882 0 .525.294.781.601.781.382.001.682-.275.682-.887zM46.226 19.795c.15 0 .331.019.431.043v-1.1l-.425-.17v-.138c.288-.081.594-.113.775-.113h.2l-.038.35v3.583a.868.868 0 00.238.362c-.124.113-.263.2-.437.295a1.144 1.144 0 01-.3-.375c-.2.206-.544.356-.8.356-.632 0-1.138-.525-1.138-1.357 0-1.123.681-1.736 1.494-1.736zm.438 2.488v-2.07a1.54 1.54 0 00-.456-.068c-.532 0-.931.419-.931 1.288 0 .682.357 1.051.75 1.051.236 0 .493-.081.637-.201zM47.978 22.702c.169-.063.331-.188.331-.337v-2.114l-.4-.169v-.131a2.97 2.97 0 01.744-.119h.2l-.031.338v2.376l.35.094v.118c-.213.075-.406.106-.725.106-.144 0-.326-.013-.469-.056v-.106zm.263-3.801c0-.195.138-.369.356-.369.175 0 .325.131.325.337 0 .219-.15.388-.35.388-.187 0-.331-.15-.331-.356zM50.93 19.789c.675 0 1.082.45 1.082 1.169 0 .119 0 .245-.006.401h-1.844c0 .7.406 1.107.925 1.107.306 0 .644-.106.881-.269.013.031.025.1.025.163 0 .282-.413.544-1.076.544-.713 0-1.294-.557-1.294-1.432 0-1.089.657-1.683 1.307-1.683zm.582 1.244c0-.613-.263-.906-.632-.906-.344 0-.706.412-.706.906h1.338zM52.514 22.702c.163-.063.331-.188.331-.337v-2.114l-.406-.169v-.138a2.96 2.96 0 01.75-.113h.15v.338c.213-.213.562-.35.925-.35.519 0 .875.331.875.975v1.751l.326.094v.118a1.78 1.78 0 01-.657.106c-.131 0-.282-.013-.406-.056v-.106c.156-.068.225-.188.225-.413v-1.194c0-.612-.256-.845-.625-.845-.256 0-.507.088-.644.195v2.1l.35.094v.118c-.213.075-.413.106-.725.106-.15 0-.326-.013-.469-.056v-.104zM55.917 22.133c.281.263.55.395.881.395.35 0 .532-.17.532-.388 0-.22-.125-.356-.538-.532l-.312-.131c-.363-.156-.562-.419-.562-.775 0-.494.437-.92 1.087-.92.5 0 .701.15.701.388 0 .093-.013.175-.032.263a1.344 1.344 0 00-.713-.238c-.4 0-.587.175-.587.387 0 .225.113.351.487.494l.338.131c.45.175.619.406.619.775 0 .482-.462.92-1.163.92-.55 0-.794-.175-.794-.513 0-.087.018-.186.056-.256zM58.538 21.102l.019-.831h-.344v-.206l.675-.669.206-.025-.025.562h.825l-.044.337h-.8l-.013.788c-.006.263-.006.5-.006.732 0 .507.15.682.381.682a.727.727 0 00.462-.163l.063.025c-.025.369-.245.557-.676.557-.5 0-.744-.263-.744-.87.002-.3.015-.632.021-.919z"/></svg>
