<svg width="397" height="148" xmlns="http://www.w3.org/2000/svg">
    <defs>
        <linearGradient x1="38.292%" y1="40.188%" x2="51.895%" y2="-6.871%" id="a">
            <stop stop-color="#819db5" offset="0%"/>
            <stop stop-color="#6c869d" offset="100%"/>
        </linearGradient>
        <linearGradient x1="50%" y1="0%" x2="50%" y2="100%" id="b">
            <stop stop-color="#819db5" offset="0%"/>
            <stop stop-color="#6c869d" offset="100%"/>
        </linearGradient>
    </defs>
    <g fill="none" fill-rule="evenodd">
        <path d="M128.316 375.82c-60.13-181.071 185.629-235.453 312.52-248.816 82.54-8.702 163.887 8.453 183.793 101.044 13.767 63.991.884 136.824-13.867 199.723-21.493 90.962-83.49 291.862-212.063 263.81-44.866-9.807-79.822-45.44-111.243-76.676-68.002-67.58-128.63-147.194-159.14-239.085z"
              fill="url(#a)" opacity=".21" transform="rotate(36 386.898 -45.172)"/>
        <path d="M363.33 261.202c-47.3-142.38 145.975-185.127 245.768-195.628 64.913-6.838 128.89 6.655 144.549 79.46 10.83 50.318.702 107.585-10.896 157.042C725.853 373.6 677.106 531.565 575.988 509.5c-35.285-7.714-62.778-35.734-87.49-60.296-53.484-53.142-101.169-115.746-125.168-188.002z"
              fill="url(#b)" opacity=".2" transform="rotate(-121 398.04 315.762)"/>
    </g>
</svg>
