<svg width="22" height="17" xmlns="http://www.w3.org/2000/svg">
    <path d="M21.392 9.001l-3.96-1.494a1.1 1.1 0 00-.764 0l-3.96 1.494c-.367.14-.608.465-.608.827 0 3.706 2.362 6.269 4.568 7.102.33.123.62.053.764 0C19.195 16.266 22 13.962 22 9.828c0-.362-.24-.687-.608-.827zm-4.342 6.352V9.074l3.283 1.239c-.193 2.892-2.094 4.496-3.283 5.04zm-4.806.053H1.65v-.85c0-1.58 1.334-2.868 2.97-2.868.502 0 1.317.53 3.08.53 1.62 0 2.437-.447 2.936-.514a9.688 9.688 0 01-.176-1.577c-.88.106-1.358.498-2.763.498-1.62 0-2.09-.531-3.08-.531C2.069 10.094 0 12.093 0 14.556v.85C0 16.286.74 17 1.65 17h12.076a9.343 9.343 0 01-1.482-1.594zM7.7 9.562c2.733 0 4.95-2.141 4.95-4.78C12.65 2.141 10.433 0 7.7 0S2.75 2.142 2.75 4.781c0 2.64 2.217 4.782 4.95 4.782zm0-7.968c1.818 0 3.3 1.43 3.3 3.187S9.518 7.97 7.7 7.97c-1.818 0-3.3-1.431-3.3-3.188 0-1.756 1.482-3.187 3.3-3.187z"
          fill-rule="nonzero"/>
</svg>
