<svg xmlns="http://www.w3.org/2000/svg" viewBox="0 0 48 49">
    <defs/>
    <path d="M24 48.625c4.323 0 8.323-1.08 12-3.242a24.251 24.251 0 008.758-8.758c2.161-3.677 3.242-7.677 3.242-12 0-4.322-1.08-8.322-3.242-12A24.251 24.251 0 0036 3.867C32.323 1.706 28.323.625 24 .625s-8.323 1.08-12 3.242a24.251 24.251 0 00-8.758 8.758C1.08 16.303 0 20.303 0 24.625c0 4.323 1.08 8.323 3.242 12A24.251 24.251 0 0012 45.383c3.677 2.161 7.677 3.242 12 3.242zm0-4.645c-3.484 0-6.71-.871-9.677-2.613a19.518 19.518 0 01-7.065-7.064c-1.742-2.968-2.613-6.194-2.613-9.678 0-3.484.871-6.71 2.613-9.677a19.518 19.518 0 017.065-7.065C17.29 6.141 20.516 5.27 24 5.27s6.71.871 9.677 2.613a19.518 19.518 0 017.065 7.065c1.742 2.967 2.613 6.193 2.613 9.677s-.871 6.71-2.613 9.678a19.518 19.518 0 01-7.065 7.064C30.71 43.109 27.484 43.98 24 43.98zm-7.742-20.903c.839 0 1.565-.307 2.177-.92.613-.613.92-1.338.92-2.177s-.307-1.565-.92-2.177c-.612-.613-1.338-.92-2.177-.92s-1.564.307-2.177.92c-.613.612-.92 1.338-.92 2.177s.307 1.564.92 2.177 1.338.92 2.177.92zm15.484 0c.839 0 1.564-.307 2.177-.92s.92-1.338.92-2.177-.307-1.565-.92-2.177c-.613-.613-1.338-.92-2.177-.92s-1.565.307-2.177.92c-.613.612-.92 1.338-.92 2.177s.307 1.564.92 2.177c.612.613 1.338.92 2.177.92zM15.756 37.799l.212-.013a2.12 2.12 0 001.548-.87 8.609 8.609 0 012.952-2.226A8.403 8.403 0 0124 33.915c1.226 0 2.403.258 3.532.775a8.609 8.609 0 012.952 2.225c.451.581 1.032.871 1.742.871.58 0 1.097-.193 1.548-.58.452-.387.71-.903.774-1.549.065-.645-.096-1.193-.483-1.645-1.29-1.548-2.807-2.726-4.549-3.532A12.976 12.976 0 0024 29.27c-1.935 0-3.774.403-5.516 1.21-1.742.806-3.258 1.984-4.549 3.532-.387.452-.548 1-.483 1.645.064.646.338 1.178.822 1.597.484.42 1.049.597 1.694.532l-.212.013z"
          fill-rule="nonzero"/>
</svg>
