<svg xmlns="http://www.w3.org/2000/svg" viewBox="0 0 48 48">
    <defs/>
    <path d="M24 0C10.742 0 0 10.742 0 24s10.742 24 24 24 24-10.742 24-24S37.258 0 24 0zm13.684 37.684A19.223 19.223 0 0124 43.354a19.223 19.223 0 01-13.684-5.67A19.223 19.223 0 014.646 24a19.223 19.223 0 015.67-13.684A19.223 19.223 0 0124 4.646a19.223 19.223 0 0113.684 5.67A19.223 19.223 0 0143.354 24a19.223 19.223 0 01-5.67 13.684zm-5.942-16.78a3.093 3.093 0 003.097-3.098 3.093 3.093 0 00-3.097-3.096 3.093 3.093 0 00-3.097 3.096 3.093 3.093 0 003.097 3.097zm-15.484 0a3.093 3.093 0 003.097-3.098 3.093 3.093 0 00-3.097-3.096 3.093 3.093 0 00-3.097 3.096 3.093 3.093 0 003.097 3.097zm18.813 6.193H12.929c-.794 0-1.403.677-1.306 1.451.725 5.73 5.7 10.162 11.719 10.162h1.316c6.02 0 10.994-4.433 11.72-10.162a1.299 1.299 0 00-1.307-1.451z"
          fill-rule="nonzero"/>
</svg>
