<svg xmlns="http://www.w3.org/2000/svg" viewBox="0 0 48 49">
    <defs/>
    <path d="M24 48.625c4.323 0 8.323-1.08 12-3.242a24.251 24.251 0 008.758-8.758c2.161-3.677 3.242-7.677 3.242-12 0-4.322-1.08-8.322-3.242-12A24.251 24.251 0 0036 3.867C32.323 1.706 28.323.625 24 .625s-8.323 1.08-12 3.242a24.251 24.251 0 00-8.758 8.758C1.08 16.303 0 20.303 0 24.625c0 4.323 1.08 8.323 3.242 12A24.251 24.251 0 0012 45.383c3.677 2.161 7.677 3.242 12 3.242zm0-4.645c-3.484 0-6.71-.871-9.677-2.613a19.518 19.518 0 01-7.065-7.064c-1.742-2.968-2.613-6.194-2.613-9.678 0-3.484.871-6.71 2.613-9.677a19.518 19.518 0 017.065-7.065C17.29 6.141 20.516 5.27 24 5.27s6.71.871 9.677 2.613a19.518 19.518 0 017.065 7.065c1.742 2.967 2.613 6.193 2.613 9.677s-.871 6.71-2.613 9.678a19.518 19.518 0 01-7.065 7.064C30.71 43.109 27.484 43.98 24 43.98zm-7.742-20.903c.839 0 1.565-.307 2.177-.92.613-.613.92-1.338.92-2.177s-.307-1.565-.92-2.177c-.612-.613-1.338-.92-2.177-.92s-1.564.307-2.177.92c-.613.612-.92 1.338-.92 2.177s.307 1.564.92 2.177 1.338.92 2.177.92zm15.484 0c.839 0 1.564-.307 2.177-.92s.92-1.338.92-2.177-.307-1.565-.92-2.177c-.613-.613-1.338-.92-2.177-.92s-1.565.307-2.177.92c-.613.612-.92 1.338-.92 2.177s.307 1.564.92 2.177c.612.613 1.338.92 2.177.92zM24 38.56c2.258 0 4.403-.484 6.435-1.452a15.768 15.768 0 005.275-4.065c.387-.451.548-1 .484-1.645a2.348 2.348 0 00-.823-1.596 2.155 2.155 0 00-1.694-.533 2.12 2.12 0 00-1.548.871 11.488 11.488 0 01-3.677 2.758A10.214 10.214 0 0124 33.915c-1.548 0-3.032-.338-4.452-1.016a11.488 11.488 0 01-3.677-2.758 2.12 2.12 0 00-1.548-.87 2.155 2.155 0 00-1.694.532c-.484.419-.758.951-.823 1.596-.064.645.097 1.194.484 1.645a15.768 15.768 0 005.275 4.065A14.786 14.786 0 0024 38.561z"
          fill-rule="nonzero"/>
</svg>
