<svg xmlns="http://www.w3.org/2000/svg" viewBox="0 0 48 48">
    <defs/>
    <path d="M24 0C10.742 0 0 10.742 0 24s10.742 24 24 24 24-10.742 24-24S37.258 0 24 0zm13.935 37.394V26.323A2.33 2.33 0 0035.613 24a2.33 2.33 0 00-2.323 2.323v14.651a19.296 19.296 0 01-9.29 2.38c-3.368 0-6.532-.87-9.29-2.38V26.323A2.33 2.33 0 0012.387 24a2.33 2.33 0 00-2.322 2.323v11.07C6.716 33.91 4.645 29.198 4.645 24c0-10.674 8.68-19.355 19.355-19.355 10.674 0 19.355 8.68 19.355 19.355 0 5.197-2.071 9.92-5.42 13.394zM19.916 21.919c.426-.232.668-.716.59-1.2-.387-2.438-3.31-4.074-5.787-4.074s-5.41 1.636-5.787 4.074a1.158 1.158 0 001.916 1.045l.92-.822c1.432-1.277 4.47-1.277 5.903 0l.92.823c.241.222.764.464 1.325.154zm13.374-5.274c-2.487 0-5.41 1.636-5.787 4.074a1.157 1.157 0 001.916 1.045l.92-.822c1.432-1.277 4.47-1.277 5.903 0l.92.823c.241.212.773.454 1.325.154.426-.232.668-.716.59-1.2-.377-2.438-3.3-4.074-5.787-4.074zM24 25.548c-2.99 0-5.42 2.778-5.42 6.194s2.43 6.193 5.42 6.193c2.99 0 5.42-2.777 5.42-6.193 0-3.416-2.43-6.194-5.42-6.194z"
          fill-rule="nonzero"/>
</svg>
