<svg xmlns="http://www.w3.org/2000/svg" viewBox="0 0 23 24">
    <defs/>
    <path d="M12.85 23.667c1.367 0 2.43-.38 3.19-1.14.79-.82 1.185-2.035 1.185-3.646 0-.698-.136-1.397-.41-2.096h1.64c1.094 0 2.021-.395 2.78-1.185.76-.79 1.14-1.701 1.14-2.734 0-.79-.213-1.55-.638-2.279a4.111 4.111 0 00-.41-2.87 4.41 4.41 0 00-.114-1.596 4.259 4.259 0 00-.661-1.458c-.03-1.337-.456-2.37-1.276-3.1-.881-.82-2.172-1.23-3.874-1.23H14.4c-1.276 0-2.461.137-3.555.41-.608.152-1.382.426-2.324.82-.517.213-.896.35-1.14.411a3.312 3.312 0 01-1.048.182h-.501a1.395 1.395 0 00-.957-.364H1.958c-.395 0-.736.144-1.025.433C.644 2.513.5 2.855.5 3.25v10.937c0 .395.144.737.433 1.026.289.288.63.433 1.025.433h2.917c.273 0 .516-.069.73-.205.212-.137.394-.312.546-.524h.319c.304.273.82.888 1.55 1.845.729.957 1.26 1.603 1.595 1.937.121.122.258.562.41 1.322.273 1.094.547 1.883.82 2.37.486.85 1.155 1.276 2.005 1.276zm0-2.188c-.152-.182-.288-.44-.41-.775a9.144 9.144 0 01-.228-.957 16.226 16.226 0 00-.319-1.367 3.401 3.401 0 00-.775-1.23c-.243-.243-.683-.79-1.321-1.64-.669-.912-1.17-1.535-1.504-1.87-.577-.607-1.063-.91-1.458-.91h-.502V4.252c.517 0 1.079-.076 1.687-.228.364-.091.911-.274 1.64-.547a30.89 30.89 0 012.096-.638 9.6 9.6 0 012.416-.32h1.686c.881 0 1.534.229 1.96.684.486.487.653 1.261.501 2.325.365.212.623.584.775 1.116.152.532.106 1.026-.137 1.481.456.456.691.98.706 1.573.016.592-.144 1.07-.478 1.435.213 0 .433.182.66.547.229.365.342.76.342 1.185 0 .425-.167.82-.5 1.185a1.605 1.605 0 01-1.231.547h-4.74c0 .364.076.744.228 1.139.06.213.197.532.41.957.213.425.365.76.456 1.003.152.395.228.79.228 1.184 0 .79-.091 1.368-.274 1.732-.334.577-.972.866-1.914.866zm-9.433-7.656c-.304 0-.562-.106-.775-.32a1.055 1.055 0 01-.32-.774c0-.304.107-.562.32-.775.213-.212.47-.319.775-.319.303 0 .562.107.774.32.213.212.32.47.32.774 0 .304-.107.562-.32.775-.212.213-.47.319-.774.319z"
          fill-rule="nonzero"/>
</svg>
