<svg xmlns="http://www.w3.org/2000/svg" viewBox="0 0 23 24">
    <defs/>
    <path d="M15.402 23.667c1.702 0 2.993-.41 3.874-1.23.82-.73 1.246-1.763 1.276-3.1.304-.425.524-.911.66-1.458a4.41 4.41 0 00.115-1.595 4.111 4.111 0 00.41-2.871c.425-.73.638-1.489.638-2.279 0-1.033-.38-1.944-1.14-2.734-.759-.79-1.686-1.185-2.78-1.185h-1.64c.274-.699.41-1.398.41-2.097 0-1.61-.395-2.825-1.185-3.645-.76-.76-1.823-1.14-3.19-1.14-.85 0-1.519.426-2.005 1.276-.273.486-.547 1.276-.82 2.37-.152.76-.289 1.2-.41 1.322-.335.334-.866.98-1.595 1.937-.73.957-1.246 1.572-1.55 1.845H1.958c-.395 0-.736.145-1.025.433-.289.289-.433.63-.433 1.026v10.937c0 .395.144.737.433 1.026.289.288.63.432 1.025.432h2.917c.334 0 .63-.106.889-.319.258-.212.433-.47.524-.774.364 0 .744.06 1.14.182.242.091.637.243 1.184.456.911.364 1.671.623 2.279.774 1.063.274 2.233.41 3.509.41h1.002zm.456-2.188h-1.686a9.6 9.6 0 01-2.416-.319 30.89 30.89 0 01-2.096-.638c-.729-.273-1.276-.456-1.64-.547a6.986 6.986 0 00-1.687-.228v-8.476h.502c.395 0 .88-.304 1.458-.912.334-.334.835-.957 1.504-1.868.638-.85 1.078-1.398 1.321-1.64.335-.335.593-.745.775-1.231.091-.304.198-.76.32-1.367.09-.456.166-.775.227-.957.122-.335.258-.593.41-.775.942 0 1.58.288 1.914.866.183.364.274.942.274 1.731 0 .395-.076.79-.228 1.185-.091.243-.243.578-.456 1.003-.213.425-.35.744-.41.957a3.169 3.169 0 00-.228 1.14h4.74c.486 0 .896.182 1.23.546.334.365.501.76.501 1.185 0 .425-.113.82-.341 1.185-.228.365-.448.547-.661.547.334.364.494.843.478 1.435-.015.593-.25 1.117-.706 1.573.243.455.289.95.137 1.48-.152.532-.41.905-.775 1.117.152 1.064-.015 1.838-.501 2.325-.426.455-1.079.683-1.96.683zm-12.441-.364c-.304 0-.562-.107-.775-.32a1.055 1.055 0 01-.32-.774c0-.304.107-.562.32-.775.213-.213.47-.319.775-.319.303 0 .562.106.774.319.213.213.32.471.32.775 0 .304-.107.562-.32.775-.212.212-.47.319-.774.319z"
          fill-rule="nonzero"/>
</svg>
