<svg xmlns:xlink="http://www.w3.org/1999/xlink" width="1428" height="112" xmlns="http://www.w3.org/2000/svg">
    <defs>
        <linearGradient x1="50%" y1="0%" x2="50%" y2="100%" id="c">
            <stop stop-color="#128CF4" offset="0%"/>
            <stop stop-color="#254A93" offset="100%"/>
        </linearGradient>
        <linearGradient x1="38.292%" y1="40.188%" x2="51.895%" y2="-6.871%" id="d">
            <stop stop-color="#128CF4" offset="0%"/>
            <stop stop-color="#254A93" offset="100%"/>
        </linearGradient>
        <linearGradient x1="50%" y1="0%" x2="50%" y2="100%" id="e">
            <stop stop-color="#128CF4" offset="0%"/>
            <stop stop-color="#254A93" offset="100%"/>
        </linearGradient>
        <linearGradient x1="0%" y1="50%" x2="100%" y2="50%" id="f">
            <stop stop-color="#128CF4" offset="0%"/>
            <stop stop-color="#254A93" offset="100%"/>
        </linearGradient>
        <path id="a" d="M0 0h1428v112H0z"/>
    </defs>
    <g fill="none" fill-rule="evenodd">
        <mask id="b" fill="#fff">
            <use xlink:href="#a"/>
        </mask>
        <g mask="url(#b)">
            <path d="M1127.233 227.727c83.198-107.946 213.72 16.012 272.395 85.89 38.172 45.452 60.552 100.52 13.672 149.292-32.397 33.713-80.69 55.159-123.847 71.532-62.476 23.582-206.273 67.055-241.09-20.358-12.139-30.51-5.016-65.459.916-96.557 12.826-67.293 35.73-135.02 77.954-189.799z"
                  fill="url(#c)" opacity=".2" transform="scale(-1 1) rotate(5 4342.62 -16920.632)"/>
            <path d="M463.627 590.037c-60.13-181.071 185.629-235.453 312.52-248.817 82.541-8.701 163.887 8.453 183.793 101.044 13.767 63.992.884 136.824-13.867 199.723-21.493 90.962-83.49 291.863-212.063 263.81-44.866-9.807-79.822-45.44-111.243-76.676-68.001-67.579-128.63-147.194-159.14-239.084z"
                  fill="url(#d)" opacity=".2" transform="scale(-1 1) rotate(-19 -1193.018 4959.63)"/>
            <path d="M766.592 219.93C719.292 77.55 912.567 34.801 1012.36 24.3c64.913-6.837 128.889 6.656 144.549 79.461 10.83 50.318.702 107.585-10.896 157.042-16.898 71.523-65.645 229.488-166.763 207.424-35.285-7.714-62.778-35.734-87.49-60.297-53.484-53.14-101.169-115.745-125.168-188z"
                  fill="url(#e)" opacity=".2" transform="scale(-1 1) rotate(-72 -29.102 1087.296)"/>
            <path d="M143.938 386.614C77.042 185.24 350.494 124.746 491.684 109.877c91.841-9.681 182.353 9.393 204.497 112.367 15.315 71.168.977 152.17-15.44 222.123-23.92 101.165-92.911 324.6-235.97 293.408-49.921-10.905-88.814-50.532-123.774-85.27-75.66-75.155-143.115-163.695-177.059-265.89z"
                  fill="url(#f)" opacity=".1" transform="scale(-1 1) rotate(-32 -1041.753 2830.092)"/>
        </g>
    </g>
</svg>
